<?xml version="1.0" encoding="UTF-8" standalone="no"?>
<!-- Created with Inkscape (http://www.inkscape.org/) -->

<svg
   xmlns:dc="http://purl.org/dc/elements/1.1/"
   xmlns:cc="http://creativecommons.org/ns#"
   xmlns:rdf="http://www.w3.org/1999/02/22-rdf-syntax-ns#"
   xmlns:svg="http://www.w3.org/2000/svg"
   xmlns="http://www.w3.org/2000/svg"
   xmlns:sodipodi="http://sodipodi.sourceforge.net/DTD/sodipodi-0.dtd"
   xmlns:inkscape="http://www.inkscape.org/namespaces/inkscape"
   id="svg3336"
   version="1.1"
   inkscape:version="0.91 r13725"
   xml:space="preserve"
   width="1063.75"
   height="393.75"
   viewBox="0 0 1063.75 393.75"
   sodipodi:docname="Jirotech green banner logo no background.svg"
   inkscape:export-filename="Y:\Jirotech\Marketing\All old and new Jirotech logos\New Jirotech Logo\g3346.png"
   inkscape:export-xdpi="90.057144"
   inkscape:export-ydpi="90.057144"><metadata
     id="metadata3342"><rdf:RDF><cc:Work
         rdf:about=""><dc:format>image/svg+xml</dc:format><dc:type
           rdf:resource="http://purl.org/dc/dcmitype/StillImage" /><dc:title></dc:title></cc:Work></rdf:RDF></metadata><defs
     id="defs3340"><clipPath
       clipPathUnits="userSpaceOnUse"
       id="clipPath3350"><path
         d="M 0,315 851,315 851,0 0,0 0,315 Z"
         id="path3352"
         inkscape:connector-curvature="0" /></clipPath></defs><sodipodi:namedview
     pagecolor="#ffffff"
     bordercolor="#666666"
     borderopacity="1"
     objecttolerance="10"
     gridtolerance="10"
     guidetolerance="10"
     inkscape:pageopacity="0"
     inkscape:pageshadow="2"
     inkscape:window-width="1920"
     inkscape:window-height="1018"
     id="namedview3338"
     showgrid="false"
     inkscape:zoom="1.3781434"
     inkscape:cx="531.875"
     inkscape:cy="196.875"
     inkscape:window-x="1912"
     inkscape:window-y="-8"
     inkscape:window-maximized="1"
     inkscape:current-layer="g3344" /><g
     id="g3344"
     inkscape:groupmode="layer"
     inkscape:label="Jirotech green banner logo no background"
     transform="matrix(1.25,0,0,-1.25,0,393.75)"><g
       id="g3346"><g
         id="g3348"
         clip-path="url(#clipPath3350)"><g
           id="g3354"
           transform="translate(98.2721,220.1458)"><path
             d="m 0,0 12.215,0 0,-82.503 c 0,-12.685 -0.985,-21.505 -2.949,-26.463 -1.967,-4.957 -5.251,-8.917 -9.846,-11.88 -4.598,-2.964 -10.167,-4.446 -16.702,-4.446 -4.93,0 -9.788,0.957 -14.58,2.866 -4.792,1.913 -10.094,5.277 -15.91,10.096 l 6.48,9.721 c 6.381,-4.487 11.684,-7.644 15.901,-9.472 2.774,-1.219 5.493,-1.828 8.158,-1.828 3.495,0 6.674,1.051 9.532,3.157 2.861,2.105 4.858,4.902 5.994,8.392 C -0.568,-98.871 0,-92.114 0,-82.088 L 0,0 Z"
             style="fill:#4eac52;fill-opacity:1;fill-rule:nonzero;stroke:none"
             id="path3356"
             inkscape:connector-curvature="0" /></g><path
           d="m 138.485,218.609 12.215,0 0,-122.217 -12.215,0 0,122.217 z"
           style="fill:#4eac52;fill-opacity:1;fill-rule:nonzero;stroke:none"
           id="path3358"
           inkscape:connector-curvature="0" /><g
           id="g3360"
           transform="translate(689.502,195.9266)"><path
             d="m 0,0 -9.638,-7.395 c -5.317,6.924 -11.704,12.172 -19.152,15.746 -7.45,3.571 -15.635,5.358 -24.553,5.358 -9.747,0 -18.774,-2.34 -27.083,-7.02 -8.308,-4.681 -14.75,-10.967 -19.318,-18.862 -4.571,-7.891 -6.855,-16.769 -6.855,-26.628 0,-14.9 5.109,-27.334 15.33,-37.304 10.218,-9.971 23.109,-14.956 38.675,-14.956 17.115,0 31.433,6.701 42.956,20.107 L 0,-78.266 c -6.094,-7.755 -13.698,-13.749 -22.807,-17.988 -9.113,-4.236 -19.291,-6.355 -30.536,-6.355 -21.379,0 -38.246,7.116 -50.597,21.352 -10.357,12.019 -15.539,26.531 -15.539,43.537 0,17.89 6.276,32.943 18.82,45.155 12.547,12.215 28.264,18.321 47.153,18.321 11.408,0 21.71,-2.257 30.907,-6.77 C -13.405,14.47 -5.873,8.142 0,0"
             style="fill:#4eac52;fill-opacity:1;fill-rule:nonzero;stroke:none"
             id="path3362"
             inkscape:connector-curvature="0" /></g><path
           d="m 472.79,218.609 -66.963,0 0,-11.914 66.963,0 0,11.914 z"
           style="fill:#4eac52;fill-opacity:1;fill-rule:nonzero;stroke:none"
           id="path3364"
           inkscape:connector-curvature="0" /><path
           d="m 433.079,96.391 12.46,0 0,94.956 -12.46,0 0,-94.956 z"
           style="fill:#4eac52;fill-opacity:1;fill-rule:nonzero;stroke:none"
           id="path3366"
           inkscape:connector-curvature="0" /><g
           id="g3368"
           transform="translate(213.5935,153.1381)"><path
             d="m 0,0 c 10.248,0.054 18.279,1.372 24.095,3.952 5.815,2.578 10.29,6.391 13.42,11.438 3.127,5.046 4.692,10.896 4.692,17.552 0,7.987 -2.272,14.712 -6.813,20.175 -4.541,5.462 -10.441,9.026 -17.695,10.689 -4.819,1.109 -14.016,1.665 -27.585,1.665 l -24.345,0 0,-38.157 12.215,0 0,26.192 21.554,0 c 8.375,0 14.369,-0.72 17.973,-2.16 3.608,-1.441 6.52,-3.835 8.741,-7.186 2.217,-3.352 3.326,-7.077 3.326,-11.175 0,-4.212 -1.094,-8.019 -3.287,-11.425 -2.19,-3.407 -5.242,-5.887 -9.154,-7.437 -3.913,-1.552 -9.943,-2.327 -18.101,-2.327 l -21.052,0.168 0,0.003 -12.215,0 0,-68.714 12.215,0 0,56.747 6.904,0 43.956,-56.747 15.109,0 L 0,0 Z"
             style="fill:#4eac52;fill-opacity:1;fill-rule:nonzero;stroke:none"
             id="path3370"
             inkscape:connector-curvature="0" /></g><g
           id="g3372"
           transform="translate(484.5309,218.6087)"><path
             d="m 0,0 0,-34.863 12.212,0 0,22.899 57.827,0 L 70.039,0 0,0 Z"
             style="fill:#4eac52;fill-opacity:1;fill-rule:nonzero;stroke:none"
             id="path3374"
             inkscape:connector-curvature="0" /></g><g
           id="g3376"
           transform="translate(496.7428,168.3984)"><path
             d="m 0,0 -12.212,0 0,-72.007 69.543,0 0,11.964 -57.331,0 0,48.023 57.331,0 0,11.964 L 0,-0.056 0,0 Z"
             style="fill:#4eac52;fill-opacity:1;fill-rule:nonzero;stroke:none"
             id="path3378"
             inkscape:connector-curvature="0" /></g><path
           d="m 726.056,218.609 -12.212,0 0,-35.897 12.212,0 0,35.897 z"
           style="fill:#4eac52;fill-opacity:1;fill-rule:nonzero;stroke:none"
           id="path3380"
           inkscape:connector-curvature="0" /><g
           id="g3382"
           transform="translate(788.2881,218.6087)"><path
             d="m 0,0 0,-51.263 -62.232,0 0,0.019 -12.212,0 0,-70.973 12.212,0 0,58.99 62.232,0 0,-58.99 12.212,0 L 12.212,0 0,0 Z"
             style="fill:#4eac52;fill-opacity:1;fill-rule:nonzero;stroke:none"
             id="path3384"
             inkscape:connector-curvature="0" /></g><g
           id="g3386"
           transform="translate(380.6902,203.155)"><path
             d="m 0,0 c -12.466,12.351 -27.959,18.528 -46.473,18.528 -11.417,0 -22.031,-2.839 -31.841,-8.517 -9.81,-5.677 -17.557,-13.529 -23.237,-23.554 -4.333,-7.646 -7.002,-15.795 -8.03,-24.438 l 12.715,0 c 0.928,6.637 2.996,12.815 6.246,18.518 4.547,7.982 10.874,14.328 18.974,19.042 8.1,4.711 16.671,7.068 25.714,7.068 9.209,0 17.919,-2.357 26.131,-7.068 8.211,-4.714 14.574,-10.99 19.1,-18.833 4.52,-7.845 6.78,-16.617 6.78,-26.317 0,-9.759 -2.26,-18.628 -6.78,-26.61 -4.526,-7.982 -10.822,-14.274 -18.895,-18.875 -8.07,-4.6 -16.849,-6.901 -26.336,-6.901 -14.203,0 -26.34,5.002 -36.409,15.008 -8.359,8.308 -13.195,18.198 -14.614,29.621 l -12.735,0 c 1.484,-14.564 7.574,-27.205 18.324,-37.899 12.469,-12.408 27.769,-18.611 45.89,-18.611 17.904,0 33.077,6.232 45.518,18.694 12.448,12.463 18.666,27.639 18.666,45.531 C 18.708,-27.557 12.472,-12.352 0,0"
             style="fill:#4eac52;fill-opacity:1;fill-rule:nonzero;stroke:none"
             id="path3388"
             inkscape:connector-curvature="0" /></g></g></g></g></svg>