<?xml version="1.0" encoding="utf-8"?>
<!-- Generator: Adobe Illustrator 16.0.0, SVG Export Plug-In . SVG Version: 6.00 Build 0)  -->
<!DOCTYPE svg PUBLIC "-//W3C//DTD SVG 1.1//EN" "http://www.w3.org/Graphics/SVG/1.1/DTD/svg11.dtd">
<svg version="1.1" id="Livello_2" xmlns="http://www.w3.org/2000/svg" xmlns:xlink="http://www.w3.org/1999/xlink" x="0px" y="0px"
	 width="185px" height="188px" viewBox="0 0 185 188" enable-background="new 0 0 185 188" xml:space="preserve">
<g>
	<g>
		<path fill="#F29100" d="M152.17,81.271c-3.961,0-7.143,0.778-7.143,8.862c0,7.851,2.9,8.605,7.143,8.605
			c4.244,0,7.142-0.99,7.142-8.605C159.312,82.049,156.247,81.271,152.17,81.271z M152.17,94.635c-2.311,0-2.569-0.894-2.569-4.501
			c0-4.219,0.495-4.761,2.569-4.761c2.146,0,2.569,0.754,2.569,4.761C154.739,93.788,154.196,94.635,152.17,94.635z"/>
		<path fill="#F29100" d="M171.026,94.99h-4.267l4.267-5.234v-3.63h-10.748v3.63h4.996l-4.644,5.281v3.582h10.396
			C171.026,98.619,171.051,95.014,171.026,94.99z"/>
	</g>
</g>
<g>
	<g>
		<polygon fill="#FFFFFF" points="143.028,170.052 139.492,164.665 138.803,164.665 138.803,171.304 139.483,171.304 
			139.483,165.918 143.028,171.304 143.699,171.304 143.699,164.665 143.028,164.665 		"/>
		<path fill="#FFFFFF" d="M146.817,166.443c-1.578,0-2.123,0.553-2.123,2.521c0,1.723,0.499,2.385,2.123,2.385
			c1.622,0,2.121-0.598,2.121-2.385C148.938,167.05,148.439,166.443,146.817,166.443z M146.817,170.679
			c-0.935,0-1.451-0.109-1.451-1.715c0-1.731,0.436-1.85,1.451-1.85c1.06,0,1.451,0.127,1.451,1.85
			C148.269,170.552,147.796,170.679,146.817,170.679z"/>
		<polygon fill="#FFFFFF" points="153.798,166.489 153.063,166.489 151.54,170.315 150.036,166.489 149.3,166.489 151.195,171.304 
			151.867,171.304 		"/>
		<path fill="#FFFFFF" d="M154.422,171.304h0.482c0.127,0,0.227-0.046,0.227-0.209v-0.518c0-0.145-0.063-0.227-0.227-0.227h-0.482
			c-0.144,0-0.217,0.092-0.217,0.227v0.518C154.205,171.222,154.295,171.304,154.422,171.304z"/>
		<polygon fill="#FFFFFF" points="160.053,171.304 160.725,171.304 160.725,164.665 160.053,164.665 158.529,165.437 
			158.529,165.918 160.053,165.427 		"/>
		<polygon fill="#FFFFFF" points="162.927,171.304 163.726,171.304 166.128,165.101 165.882,164.665 161.722,164.665 
			161.722,165.337 165.266,165.337 		"/>
		<path fill="#FFFFFF" d="M169.472,170.813c-0.062,0-0.806-0.19-0.806-0.19c-0.309-0.071-0.518-0.253-0.518-1.042v-2.432h1.405
			v-0.67h-1.405v-1.342h-0.506l-0.165,1.342l-0.896,0.163v0.507h0.896v2.432c0,1.278,0.499,1.714,1.196,1.714h0.798V170.813z"/>
		<path fill="#FFFFFF" d="M171.041,167.595c0.697-0.336,1.051-0.517,1.776-0.517c0.472,0,0.816,0.272,0.816,0.87v3.355h0.672v-3.355
			c0-0.799-0.526-1.541-1.488-1.541c-0.734,0-1.225,0.326-1.776,0.643v-2.855h-0.673v7.109h0.673V167.595z"/>
		<path fill="#FFFFFF" d="M157.437,176.573c0-1.337-0.714-2.464-2.357-2.464c-1.406,0-2.317,0.106-3.307,0.278v1.137h2.823
			c0.935,0,1.313,0.336,1.313,1.059c0,1.261-3.036,3.576-4.057,4.262v1.338h5.584v-1.404h-3.005
			C155.156,180.204,157.437,178.358,157.437,176.573z"/>
		<path fill="#FFFFFF" d="M162.203,174.218h-1.783c-1.213,0-2.002,0.695-2.002,2.003v4.021c0,1.305,0.772,1.941,1.995,1.941h1.785
			c1.203,0,1.929-0.647,1.929-1.941v-4.08C164.127,175.117,163.669,174.218,162.203,174.218z M162.605,180.001
			c0,0.588-0.28,0.777-0.791,0.777h-1.054c-0.367,0-0.821-0.12-0.821-0.783v-3.596c0-0.313,0.125-0.777,0.779-0.777h1.144
			c0.524,0,0.743,0.277,0.743,0.777V180.001z"/>
		<polygon fill="#FFFFFF" points="165.022,175.119 165.022,176.115 166.55,175.731 166.55,182.183 168.073,182.183 168.073,174.218 
			166.562,174.218 		"/>
		<polygon fill="#FFFFFF" points="174.104,174.218 168.979,174.218 168.979,175.622 172.635,175.622 170.188,182.183 
			171.85,182.183 174.518,174.921 		"/>
	</g>
	<g>
		<path fill="#F29100" d="M152.253,143.588c-3.961,0-7.143,0.778-7.143,8.862c0,7.851,2.9,8.604,7.143,8.604
			c4.244,0,7.142-0.99,7.142-8.604C159.395,144.366,156.33,143.588,152.253,143.588z M152.253,156.952
			c-2.311,0-2.569-0.895-2.569-4.502c0-4.219,0.495-4.762,2.569-4.762c2.146,0,2.569,0.755,2.569,4.762
			C154.822,156.104,154.279,156.952,152.253,156.952z"/>
		<path fill="#F29100" d="M171.109,157.307h-4.267l4.267-5.233v-3.63h-10.748v3.63h4.996l-4.644,5.281v3.582h10.396
			C171.109,160.937,171.134,157.331,171.109,157.307z"/>
	</g>
</g>
<g>
	<g>
		<polygon fill="#6F6F6E" points="143.065,42.829 139.529,37.442 138.84,37.442 138.84,44.08 139.521,44.08 139.521,38.694 
			143.065,44.08 143.736,44.08 143.736,37.442 143.065,37.442 		"/>
		<path fill="#6F6F6E" d="M146.854,39.22c-1.578,0-2.123,0.553-2.123,2.521c0,1.722,0.499,2.385,2.123,2.385
			c1.622,0,2.121-0.598,2.121-2.385C148.976,39.827,148.477,39.22,146.854,39.22z M146.854,43.455c-0.935,0-1.451-0.109-1.451-1.714
			c0-1.732,0.436-1.851,1.451-1.851c1.06,0,1.451,0.127,1.451,1.851C148.306,43.328,147.833,43.455,146.854,43.455z"/>
		<polygon fill="#6F6F6E" points="153.835,39.265 153.101,39.265 151.577,43.092 150.073,39.265 149.337,39.265 151.232,44.08 
			151.904,44.08 		"/>
		<path fill="#6F6F6E" d="M154.459,44.08h0.482c0.127,0,0.227-0.046,0.227-0.209v-0.517c0-0.145-0.063-0.227-0.227-0.227h-0.482
			c-0.144,0-0.217,0.091-0.217,0.227v0.517C154.242,43.998,154.332,44.08,154.459,44.08z"/>
		<polygon fill="#6F6F6E" points="160.09,44.08 160.762,44.08 160.762,37.442 160.09,37.442 158.566,38.213 158.566,38.694 
			160.09,38.204 		"/>
		<polygon fill="#6F6F6E" points="162.964,44.08 163.763,44.08 166.165,37.877 165.919,37.442 161.759,37.442 161.759,38.113 
			165.303,38.113 		"/>
		<path fill="#6F6F6E" d="M169.509,43.59c-0.062,0-0.806-0.19-0.806-0.19c-0.309-0.072-0.518-0.253-0.518-1.042v-2.431h1.405v-0.67
			h-1.405v-1.342h-0.506l-0.165,1.342l-0.896,0.163v0.507h0.896v2.431c0,1.279,0.499,1.714,1.196,1.714h0.798V43.59z"/>
		<path fill="#6F6F6E" d="M171.078,40.372c0.697-0.336,1.051-0.517,1.776-0.517c0.472,0,0.816,0.272,0.816,0.87v3.355h0.672v-3.355
			c0-0.798-0.526-1.541-1.488-1.541c-0.734,0-1.225,0.326-1.776,0.643v-2.856h-0.673v7.109h0.673V40.372z"/>
		<path fill="#6F6F6E" d="M157.474,49.35c0-1.337-0.714-2.464-2.357-2.464c-1.406,0-2.317,0.106-3.307,0.278V48.3h2.823
			c0.935,0,1.313,0.336,1.313,1.059c0,1.261-3.036,3.577-4.057,4.262v1.338h5.584v-1.404h-3.005
			C155.193,52.98,157.474,51.135,157.474,49.35z"/>
		<path fill="#6F6F6E" d="M162.24,46.995h-1.783c-1.213,0-2.002,0.695-2.002,2.002v4.021c0,1.305,0.772,1.941,1.995,1.941h1.785
			c1.203,0,1.929-0.647,1.929-1.941v-4.081C164.164,47.894,163.706,46.995,162.24,46.995z M162.643,52.777
			c0,0.587-0.28,0.778-0.791,0.778h-1.054c-0.367,0-0.821-0.121-0.821-0.784v-3.595c0-0.313,0.125-0.778,0.779-0.778h1.144
			c0.524,0,0.743,0.277,0.743,0.778V52.777z"/>
		<polygon fill="#6F6F6E" points="165.06,47.896 165.06,48.892 166.587,48.507 166.587,54.959 168.11,54.959 168.11,46.995 
			166.599,46.995 		"/>
		<polygon fill="#6F6F6E" points="174.141,46.995 169.016,46.995 169.016,48.398 172.672,48.398 170.225,54.959 171.887,54.959 
			174.555,47.697 		"/>
	</g>
	<g>
		<path fill="#F29100" d="M152.29,16.364c-3.961,0-7.143,0.778-7.143,8.862c0,7.851,2.9,8.604,7.143,8.604
			c4.244,0,7.142-0.99,7.142-8.604C159.432,17.142,156.367,16.364,152.29,16.364z M152.29,29.729c-2.311,0-2.569-0.896-2.569-4.502
			c0-4.219,0.495-4.761,2.569-4.761c2.146,0,2.569,0.754,2.569,4.761C154.859,28.881,154.316,29.729,152.29,29.729z"/>
		<path fill="#F29100" d="M171.146,30.083h-4.267l4.267-5.233v-3.63h-10.748v3.63h4.996l-4.644,5.281v3.583h10.396
			C171.146,33.713,171.171,30.107,171.146,30.083z"/>
	</g>
</g>
<path opacity="0.3" fill="#1D1D1B" enable-background="new    " d="M9.997,32.583c-0.066-0.085-0.152-0.178-0.215-0.25
	c-0.149-0.171-0.248-0.314-0.359-0.475c-0.122-0.178-0.144-0.331-0.257-0.506C9.061,31.188,9,31.024,8.894,30.854
	c-0.092-0.146-0.232-0.271-0.299-0.407c-0.062-0.123-0.042-0.241-0.11-0.376c-0.049-0.097-0.169-0.2-0.214-0.298
	c-0.062-0.133-0.038-0.277-0.091-0.438c-0.05-0.149-0.144-0.313-0.167-0.449c-0.05-0.29-0.026-0.571-0.068-0.857
	c-0.015-0.099-0.076-0.208-0.091-0.31c-0.015-0.104,0.031-0.193,0.023-0.292c-0.008-0.112-0.037-0.231-0.038-0.345
	c0-0.117,0.035-0.225,0.038-0.343c0.002-0.116-0.066-0.27-0.077-0.387c-0.01-0.123-0.007-0.233-0.013-0.357
	c-0.007-0.127-0.048-0.257-0.034-0.365c0.015-0.116,0.071-0.223,0.08-0.347c0.01-0.123,0.02-0.233,0.065-0.341
	c0.094-0.223,0.081-0.472,0.145-0.683c0.037-0.118,0.11-0.21,0.148-0.305c0.195-0.483,0.829-0.968,1.177-1.442
	c0.272-0.371,0.484-0.808,1.122-1.133c0.626-0.32,1.32-0.561,2.05-0.692c0.336-0.059,0.715-0.09,1.083-0.145
	c0.339-0.051,0.755-0.076,1.071-0.19c0.382-0.138,0.643-0.377,1.042-0.533c0.4-0.156,0.737-0.366,0.979-0.561
	c0.173-0.14,0.32-0.321,0.477-0.488c0.16-0.17,0.292-0.334,0.403-0.503c0.136-0.208,0.228-0.493,0.357-0.751
	c0.122-0.243,0.322-0.471,0.424-0.726c0.101-0.251,0.249-0.494,0.401-0.74c0.147-0.233,0.371-0.465,0.387-0.732
	c0.007-0.121-0.117-0.328-0.174-0.471c-0.183-0.466-0.503-0.972-0.613-1.42c-0.078-0.319,0.106-0.561,0.415-0.822
	c0.56-0.477,1.09-0.937,1.789-1.398c0.414-0.274,0.765-0.58,1.288-0.812c0.627-0.277,1.154-0.669,1.821-0.981
	c0.302-0.141,0.688-0.24,0.974-0.396c0.205-0.112,0.343-0.271,0.477-0.421c0.215-0.24,0.273-0.53,0.481-0.78
	c0.377-0.456,1.091-0.79,1.875-1.163c0.294-0.14,0.633-0.229,0.918-0.341c0.24-0.095,0.443-0.209,0.705-0.259
	c0.17-0.033,0.408-0.019,0.625-0.039c0.648-0.059,1.229-0.043,1.917,0.039c0.445,0.053,0.876,0.069,1.301,0.101
	c0.906,0.068,1.648,0.112,2.594,0.305c0.227,0.046,0.441,0.103,0.66,0.146c0.235,0.048,0.431,0.095,0.66,0.151
	c0.168,0.041,0.342,0.065,0.523,0.11c0.505,0.125,0.981,0.178,1.497,0.28c0.315,0.062,0.691,0.176,1.038,0.259
	c0.688,0.166,1.277,0.354,2,0.634c0.317,0.124,0.627,0.118,0.98,0.255c0.171,0.067,0.433,0.301,0.674,0.377
	c0.626,0.197,1.35,0.326,1.971,0.471c0.446,0.104,0.903,0.26,1.339,0.359c0.788,0.181,1.467,0.292,2.253,0.505
	c0.325,0.121,0.687,0.218,1.021,0.357c0.31,0.13,0.599,0.264,0.903,0.392c0.151,0.063,0.292,0.148,0.442,0.208
	c0.203,0.079,0.406,0.093,0.596,0.178c0.52,0.02,1.024-0.016,1.608,0.223c0.25-0.198,0.154-0.603,0.643-0.66
	c0.409,0.201,0.154,0.383,0.314,0.579c0.636-0.226,1.393-0.495,1.792-0.89c0.252-0.25,0.434-0.537,0.78-0.845
	c0.201-0.179,0.647-0.907,0.846-0.802c0.208,0.11,0.207,1.21,0.208,1.334c0,0.175-0.014,0.333-0.071,0.443
	c-0.192,0.369-0.506,0.799-1.005,1.163c-0.499,0.365-1.085,0.703-1.794,0.942c0.423,0.196,1.069,0.542,1.532,0.898
	c0.133,0.103,0.284,0.207,0.439,0.302c0.305,0.187,0.641,0.277,0.972,0.429c0.259,0.12,0.554,0.288,0.789,0.463
	c0.116,0.087,0.192,0.231,0.328,0.317c0.137,0.086,0.351,0.118,0.496,0.205c0.147,0.089,0.25,0.25,0.433,0.365
	c0.151,0.094,0.348,0.152,0.449,0.229c0.16,0.122,0.177,0.262,0.318,0.389c0.261,0.233,0.671,0.43,0.882,0.679
	c0.135,0.161,0.05,0.2,0.22,0.362c0.287,0.115,0.499,0.232,0.649,0.442c0.03,0.042,0.007,0.093,0.061,0.147
	c0.069,0.067,0.195,0.123,0.252,0.177c0.17,0.166,0.272,0.326,0.392,0.454c0.236,0.097,0.42,0.189,0.617,0.331
	c0.171,0.122,0.255,0.278,0.43,0.417c0.115,0.091,0.296,0.171,0.401,0.254c0.159,0.127,0.215,0.278,0.332,0.391
	c0.18,0.086,0.237,0.082,0.359,0.173c0.146,0.11,0.065,0.209,0.176,0.292c0.076,0.056,0.266,0.093,0.39,0.157
	c0.121,0.061,0.218,0.179,0.37,0.27c0.241,0.146,0.459,0.183,0.563,0.375c0.199,0.072,0.281,0.085,0.435,0.185
	c0.127,0.083,0.128,0.161,0.233,0.239c0.2,0.147,0.558,0.266,0.582,0.441c0.265,0.077,0.601,0.255,0.668,0.423
	c0.304,0.098,0.56,0.288,0.842,0.461c0.088,0.054,0.136,0.125,0.191,0.157c0.207,0.119,0.6,0.196,0.646,0.409
	c0.269,0.049,0.379,0.207,0.573,0.345c0.292,0.208,0.737,0.397,0.887,0.616c0.167,0.085,0.271,0.108,0.403,0.202
	c0.105,0.074,0.134,0.147,0.227,0.215c0.171,0.128,0.445,0.229,0.47,0.371c0.285,0.149,0.491,0.337,0.672,0.497
	c0.085,0.076,0.112,0.15,0.194,0.232c0.054,0.054,0.142,0.106,0.191,0.158c0.079,0.08,0.066,0.173,0.146,0.255
	c0.061,0.062,0.182,0.11,0.229,0.164c0.073,0.081,0.083,0.186,0.152,0.283c0.088,0.123,0.22,0.268,0.28,0.387
	c0.061,0.125,0.042,0.319,0.079,0.521c0.106,0.589-0.05,1.284-0.641,1.727c-0.445,0.336-1.315,0.668-1.83,0.885
	c-0.195,0.083-0.806,0.063-1.068,0.011c-0.393-0.077-0.882-0.369-0.529-0.528c-0.13-0.359-0.702-0.903-0.749-1.239
	c-0.007-0.054,0.208-0.217,0.328-0.244c0.187-0.043,0.453,0.013,0.65,0.05c0.128,0.023,0.522,0.169,0.66,0.146
	c0.229-0.037,0.32-0.455,0.307-0.564c-0.061-0.518-1.287-1.398-2.436-2.067c-0.58-0.337-1.278-0.668-1.948-1.017
	c-0.689-0.358-1.306-0.79-1.993-1.172c-1.327-0.737-2.703-1.459-3.936-2.167c-0.338-0.194-0.63-0.408-0.935-0.592
	c-0.863-0.521-1.744-1.074-2.699-1.601c-1.031-0.568-2.208-0.817-3.224-1.283c-0.353-0.161-0.676-0.328-1.026-0.469
	c-0.332-0.134-0.697-0.256-0.991-0.411c-0.297-0.156-0.665-0.418-0.983-0.568c-1.489-0.701-2.657-0.125-3.854-0.018
	c-0.001,0.422,0.617,1.366,0.617,1.366s0.197,0.375,0.155,0.532c-0.024,0.093-0.056,0.21-0.099,0.323
	c-0.103,0.267-0.31,0.574-0.646,0.797c-0.474,0.313-0.934,0.663-1.318,1.034c-0.072,0.071-0.163,0.171-0.235,0.243
	c-0.067,0.068-0.092,0.129-0.167,0.196c-0.099,0.091-0.238,0.195-0.328,0.287c-0.172,0.176-0.359,0.238-0.317,0.468
	c0.017,0.094,0.034,0.14,0.043,0.208c0.025,0.21,0.271,0.564,0.495,0.766c0.067,0.061,0.141,0.144,0.217,0.203
	c0.702,0.555,1.208,1.112,1.95,1.669c0.263,0.198,0.636,0.385,0.93,0.596c0.843,0.603,1.685,1.137,2.639,1.582
	c0.704,0.326,1.243,0.628,1.932,0.898c0.517,0.202,1.215,0.307,1.754,0.478c0.188,0.06,0.378,0.117,0.596,0.197
	c0.271,0.099,0.634,0.232,0.947,0.34c0.293,0.101,0.603,0.192,0.861,0.256c0.39,0.098,0.848,0.136,1.256,0.242
	c0.442,0.115,1.028,0.34,1.59,0.538c0.523,0.182,1.13,0.351,1.576,0.545c0.859,0.375,1.583,0.765,2.247,1.297
	c0.118,0.095,0.253,0.202,0.368,0.305c0.117,0.105,0.235,0.209,0.337,0.304c0.205,0.193,0.417,0.479,0.689,0.726
	c0.293,0.267,0.478,0.707,0.4,0.959c0.2,0.519,0.063,0.75,0.241,1.201c0.106,0.268,0.188,0.465,0.457,0.761
	c0.089,0.098,0.243,0.241,0.346,0.316c0.15,0.106,0.316,0.178,0.437,0.252c0.5,0.31,0.898,0.738,1.157,1.039
	c0.464,0.545,0.342,0.976-0.357,1.33c-0.108,0.055-0.197,0.115-0.325,0.175c-0.091,0.042-0.194,0.08-0.275,0.132
	c-0.111,0.071-0.25,0.116-0.369,0.189c-0.11,0.066-0.224,0.12-0.346,0.185c-0.113,0.06-0.245,0.119-0.376,0.183
	c-0.134,0.066-0.22,0.135-0.332,0.212c-0.073,0.051-0.134,0.121-0.228,0.175c-0.489,0.284-0.9,0.745-1.625,0.653
	c-0.222-0.028-0.553-0.155-0.806-0.276c-0.316-0.15-0.605-0.399-0.967-0.576c-0.155-0.075-0.277-0.142-0.431-0.212
	c-0.172-0.079-0.344-0.151-0.519-0.246c-0.328-0.173-0.65-0.317-0.948-0.509c-0.941-0.605-1.838-1.136-2.832-1.687
	c-0.436-0.241-0.869-0.457-1.275-0.699c-0.839-0.501-1.625-1.047-2.49-1.505c-0.209-0.11-0.467-0.217-0.718-0.347
	c-0.222-0.112-0.487-0.228-0.711-0.324c-0.469-0.2-1-0.365-1.397-0.56c-0.546-0.268-1.02-0.61-1.494-0.807
	c-0.159-0.066-0.344-0.112-0.533-0.169c-0.119-0.035-0.231-0.073-0.38-0.12c-0.214-0.069-0.466-0.127-0.656-0.193
	c-0.292-0.101-0.55-0.195-0.782-0.254c-0.191-0.047-0.427-0.072-0.649-0.109c-0.4-0.066-1.155-0.367-1.695-0.586
	c-0.288-0.116-0.604-0.263-0.969-0.396c-0.297-0.11-0.826-0.292-0.962-0.248c-0.185,0.059-0.158,0.385-0.222,0.546
	c-0.088,0.224-0.259,0.366-0.352,0.538c-0.087,0.158-0.133,0.322-0.21,0.464c-0.268,0.484-0.583,0.942-0.814,1.443
	c-0.066,0.146-0.085,0.245-0.172,0.384c-0.043,0.07-0.109,0.188-0.15,0.255c-0.037,0.063-0.049,0.127-0.09,0.19
	c-0.033,0.054-0.078,0.115-0.113,0.168c-0.101,0.153-0.131,0.337-0.219,0.494c-0.089,0.161-0.139,0.347-0.181,0.501
	c-0.021,0.079-0.035,0.188-0.064,0.262c-0.078,0.202,2.465,15.533,2.164,15.798c-0.191,0.167-0.696,0.34-0.999,0.496
	c-0.593,0.303-1.15,0.608-1.7,0.894c-0.505,0.262-0.551,1.209-1.511,1.618c-0.217,0.092-0.545-1.146-0.714-1.29
	c-0.178-0.15-0.417-0.654-0.492-0.815c-0.504-0.169-0.664-0.562-0.929-0.81c-0.165-0.153-0.371-0.287-0.5-0.406
	c-0.418-0.386-0.737-0.759-1.233-1.179c-0.163-0.138-0.375-0.267-0.515-0.398c-0.119-0.111-0.174-0.213-0.301-0.322
	c-0.198-0.172-0.497-0.355-0.75-0.542c-0.4-0.298-0.679-0.557-1.006-0.837c-0.119-0.1-0.265-0.198-0.372-0.265
	c-0.177-0.109-0.363-0.183-0.552-0.294c-0.135-0.081-0.35-0.188-0.5-0.291c-0.147-0.101-0.31-0.206-0.456-0.304
	c-0.234-0.154-0.358-0.208-0.614-0.356c-0.153-0.088-0.377-0.227-0.541-0.309c-0.187-0.093-0.362-0.226-0.549-0.324
	c-0.503-0.265-0.951-0.552-1.409-0.826c-0.301-0.18-0.823-0.494-0.823-0.494s-0.975-0.581-1.53-0.936
	c-0.555-0.354-1.118-0.723-1.727-1.129c-1.122-0.751-2.304-1.749-3.509-2.513c1.22,1.088,2.581,2.181,3.91,3.326
	c0.917,0.791,1.991,1.67,2.904,2.491c0.298,0.268,0.595,0.601,0.908,0.809c0.096,0.065,0.203,0.097,0.298,0.152
	c0.628,0.375,1.147,0.85,1.534,1.28c0.145,0.161,0.221,0.333,0.354,0.533c0.132,0.195,0.306,0.402,0.384,0.568
	c0.177,0.381,0.369,0.959,0.14,1.291c-0.096,0.139,0.082,0.589-0.208,0.38c-0.257-0.187-0.554-0.806-0.635-1.032
	c-0.077-0.215-0.326-0.566-0.556-0.786c-0.622-0.591-1.564-1.177-1.751-1.653c-0.038-0.093,0.03-0.201-0.008-0.275
	c-0.069-0.137-0.515-0.474-0.752-0.712c-0.507-0.508-1.083-0.938-1.747-1.451c-0.308-0.237-0.559-0.481-0.827-0.686
	c-0.093-0.071-0.226-0.192-0.298-0.244c-0.218-0.153-0.437-0.345-0.648-0.528c-0.22-0.194-0.433-0.366-0.682-0.55
	c-0.16-0.119-0.262-0.218-0.39-0.323c-0.131-0.106-0.295-0.22-0.434-0.324c-0.298-0.227-0.522-0.416-0.929-0.698
	c-0.676-0.469-1.48-1.13-2.259-1.648c-0.279-0.185-0.513-0.365-0.76-0.555c-0.26-0.197-0.522-0.394-0.79-0.583
	c-0.263-0.186-0.5-0.373-0.737-0.546c-0.552-0.403-1.153-0.815-1.731-1.205c-0.657-0.442-1.469-0.868-1.95-1.271
	c-0.163-0.137-0.294-0.327-0.456-0.506c-0.562-0.624-1.246-1.309-1.655-1.879"/>
<path fill="#1D70B7" d="M39.561,28.173l11.934-6.234c3.734-1.95,8.274-3.406,8.274,4.355c0,8.603-4.906,11.861-8.274,13.364
	c-1.464,0.655-4.649,1.807-4.832,1.792v9.812l-7.102,3.709V28.173z M50.763,34.037C52.154,33.31,52.63,32,52.63,30.133
	c0-1.831-0.586-2.44-1.867-1.771l-4.1,2.142v5.674L50.763,34.037z"/>
<path fill="#1D70B7" d="M69.944,12.01c5.821-3.041,6.187-3.231,11.129-4.458v5.454c-0.22,0.115-4.283,1.432-8.932,3.86
	c-3.405,1.778-3.991,3.732-3.991,9.7c0,6.003,0.22,7.024,3.442,5.341c2.27-1.186,2.636-3.062,2.636-3.062V26.1l-1.794,0.937v-4.393
	c1.647-1.74,3.991-3,6.407-4.262c0.769-0.402,1.611-0.805,2.489-1.191v15.962l-5.015,2.619l-2.014-0.742
	c-1.025,1.89-1.61,2.636-4.54,4.348c-7.578,4.435-8.713-1.636-8.713-9.177C61.048,22.038,62.659,15.815,69.944,12.01z"/>
<path fill="#29235C" d="M85.602,9.599h8.925c7.384,0,8.531,7.187,8.531,12.108c0,5.447-2.199,11.911-8.531,11.911h-8.925V9.599z
	 M94.527,31.092c4.33,0,6.104-4.364,6.104-9.418c0-7.022-2.299-9.647-6.104-9.647h-6.499v19.065H94.527z"/>
<path fill="#29235C" d="M105.846,27.482c0-2.625,1.641-4.364,4.365-4.364c0,0,7.283,0.033,7.283,0c0,0,0.035-2.166,0-2.198
	c0-2.002-1.049-2.691-2.689-2.691c-2.363,0-5.217,0.164-8.4,0.395v-1.772c2.33-0.656,5.25-0.952,8.498-0.984
	c2.724-0.033,5.021,1.444,5.021,5.054V33.62h-1.805l-0.625-2.1c-0.064,0-4.299,2.297-7.283,2.297c-2.396,0-4.365-1.542-4.365-4.332
	V27.482z M110.211,31.388c2.625,0,7.283-1.673,7.283-1.673v-4.693l-7.283,0.525c-1.412,0.131-1.938,1.083-1.938,2.133v1.641
	C108.273,30.895,109.096,31.388,110.211,31.388z"/>
<path fill="#29235C" d="M124.32,16.194l4.232,13.618c0.59,1.87,2.196,1.28,2.165,1.28l4.986-14.898h2.726l-7.681,22.937
	l-2.459,3.348h-1.513l3.087-8.861c-0.689,0-2.855-0.065-3.938-3.608l-4.268-13.815L124.32,16.194L124.32,16.194z"/>
<path opacity="0.3" fill="#1D1D1B" enable-background="new    " d="M9.997,97.583c-0.066-0.085-0.152-0.179-0.215-0.249
	c-0.149-0.172-0.248-0.314-0.359-0.475c-0.122-0.18-0.144-0.332-0.257-0.508C9.061,96.188,9,96.023,8.894,95.854
	c-0.092-0.146-0.232-0.271-0.299-0.406c-0.062-0.122-0.042-0.241-0.11-0.377c-0.049-0.098-0.169-0.199-0.214-0.297
	c-0.062-0.135-0.038-0.277-0.091-0.438c-0.05-0.149-0.144-0.313-0.167-0.449c-0.05-0.29-0.026-0.571-0.068-0.857
	c-0.015-0.099-0.076-0.208-0.091-0.31c-0.015-0.104,0.031-0.193,0.023-0.292c-0.008-0.112-0.037-0.231-0.038-0.345
	c0-0.117,0.035-0.225,0.038-0.343c0.002-0.116-0.066-0.27-0.077-0.387c-0.01-0.123-0.007-0.233-0.013-0.357
	c-0.007-0.127-0.048-0.257-0.034-0.365c0.015-0.116,0.071-0.223,0.08-0.347c0.01-0.123,0.02-0.233,0.065-0.341
	c0.094-0.223,0.081-0.472,0.145-0.683c0.037-0.118,0.11-0.21,0.148-0.305c0.195-0.483,0.829-0.968,1.177-1.442
	c0.272-0.371,0.484-0.808,1.122-1.133c0.626-0.32,1.32-0.561,2.05-0.692c0.336-0.059,0.715-0.09,1.083-0.145
	c0.339-0.051,0.755-0.076,1.071-0.19c0.382-0.138,0.643-0.377,1.042-0.533c0.4-0.156,0.737-0.366,0.979-0.561
	c0.173-0.14,0.32-0.321,0.477-0.488c0.16-0.17,0.292-0.334,0.403-0.503c0.136-0.208,0.228-0.493,0.357-0.751
	c0.122-0.243,0.322-0.471,0.424-0.726c0.101-0.251,0.249-0.494,0.401-0.74c0.147-0.233,0.371-0.465,0.387-0.732
	c0.007-0.121-0.117-0.328-0.174-0.471c-0.183-0.466-0.503-0.972-0.613-1.42c-0.078-0.319,0.106-0.561,0.415-0.822
	c0.56-0.477,1.09-0.937,1.789-1.398c0.414-0.274,0.765-0.58,1.288-0.812c0.627-0.277,1.154-0.669,1.821-0.981
	c0.302-0.141,0.688-0.24,0.974-0.396c0.205-0.112,0.343-0.271,0.477-0.421c0.215-0.24,0.273-0.53,0.481-0.78
	c0.377-0.456,1.091-0.79,1.875-1.163c0.294-0.14,0.633-0.229,0.918-0.341c0.24-0.095,0.443-0.209,0.705-0.259
	c0.17-0.033,0.408-0.019,0.625-0.039c0.648-0.059,1.229-0.043,1.917,0.039c0.445,0.053,0.876,0.069,1.301,0.101
	c0.906,0.068,1.648,0.112,2.594,0.305c0.227,0.046,0.441,0.103,0.66,0.146c0.235,0.048,0.431,0.095,0.66,0.151
	c0.168,0.041,0.342,0.065,0.523,0.11c0.505,0.125,0.981,0.178,1.497,0.28c0.315,0.062,0.691,0.176,1.038,0.259
	c0.688,0.166,1.277,0.353,2,0.634c0.317,0.124,0.627,0.118,0.98,0.255c0.171,0.067,0.433,0.301,0.674,0.377
	c0.626,0.197,1.35,0.326,1.971,0.471c0.446,0.104,0.903,0.26,1.339,0.359c0.788,0.181,1.467,0.292,2.253,0.505
	c0.325,0.121,0.687,0.218,1.021,0.357c0.31,0.13,0.599,0.264,0.903,0.392c0.151,0.063,0.292,0.148,0.442,0.208
	c0.203,0.079,0.406,0.093,0.596,0.178c0.52,0.02,1.024-0.016,1.608,0.223c0.25-0.198,0.154-0.603,0.643-0.66
	c0.409,0.201,0.154,0.383,0.314,0.579c0.636-0.226,1.393-0.495,1.792-0.89c0.252-0.25,0.434-0.537,0.78-0.845
	c0.201-0.179,0.647-0.907,0.846-0.802c0.208,0.11,0.207,1.21,0.208,1.334c0,0.175-0.014,0.333-0.071,0.443
	c-0.192,0.369-0.506,0.799-1.005,1.163c-0.499,0.365-1.085,0.703-1.794,0.942c0.423,0.196,1.069,0.542,1.532,0.898
	c0.133,0.103,0.284,0.207,0.439,0.302c0.305,0.187,0.641,0.277,0.972,0.429c0.259,0.12,0.554,0.288,0.789,0.463
	c0.116,0.087,0.192,0.231,0.328,0.317c0.137,0.086,0.351,0.118,0.496,0.205c0.147,0.089,0.25,0.25,0.433,0.365
	c0.151,0.094,0.348,0.152,0.449,0.229c0.16,0.122,0.177,0.262,0.318,0.389c0.261,0.233,0.671,0.43,0.882,0.679
	c0.135,0.161,0.05,0.2,0.22,0.362c0.287,0.115,0.499,0.232,0.649,0.442c0.03,0.042,0.007,0.093,0.061,0.147
	c0.069,0.067,0.195,0.123,0.252,0.177c0.17,0.166,0.272,0.326,0.392,0.454c0.236,0.097,0.42,0.189,0.617,0.331
	c0.171,0.122,0.255,0.278,0.43,0.417c0.115,0.091,0.296,0.171,0.401,0.254c0.159,0.127,0.215,0.278,0.332,0.391
	c0.18,0.086,0.237,0.082,0.359,0.173c0.146,0.11,0.065,0.209,0.176,0.292c0.076,0.056,0.266,0.093,0.39,0.157
	c0.121,0.061,0.218,0.179,0.37,0.27c0.241,0.146,0.459,0.183,0.563,0.375c0.199,0.072,0.281,0.085,0.435,0.185
	c0.127,0.083,0.128,0.161,0.233,0.239c0.2,0.147,0.558,0.266,0.582,0.441c0.265,0.077,0.601,0.255,0.668,0.423
	c0.304,0.098,0.56,0.288,0.842,0.461c0.088,0.054,0.136,0.125,0.191,0.157c0.207,0.119,0.6,0.196,0.646,0.409
	c0.269,0.049,0.379,0.207,0.573,0.345c0.292,0.208,0.737,0.397,0.887,0.616c0.167,0.085,0.271,0.108,0.403,0.202
	c0.105,0.074,0.134,0.147,0.227,0.215c0.171,0.128,0.445,0.229,0.47,0.371c0.285,0.149,0.491,0.337,0.672,0.497
	c0.085,0.076,0.112,0.15,0.194,0.232c0.054,0.054,0.142,0.106,0.191,0.158c0.079,0.08,0.066,0.173,0.146,0.255
	c0.061,0.062,0.182,0.11,0.229,0.164c0.073,0.081,0.083,0.186,0.152,0.283c0.088,0.123,0.22,0.268,0.28,0.387
	c0.061,0.125,0.042,0.319,0.079,0.521c0.106,0.589-0.05,1.284-0.641,1.727c-0.445,0.336-1.315,0.668-1.83,0.885
	c-0.195,0.082-0.806,0.063-1.068,0.011c-0.393-0.077-0.882-0.369-0.529-0.528c-0.13-0.359-0.702-0.903-0.749-1.239
	c-0.007-0.054,0.208-0.217,0.328-0.244c0.187-0.043,0.453,0.013,0.65,0.05c0.128,0.023,0.522,0.169,0.66,0.146
	c0.229-0.037,0.32-0.455,0.307-0.564c-0.061-0.518-1.287-1.398-2.436-2.067c-0.58-0.337-1.278-0.668-1.948-1.017
	c-0.689-0.358-1.306-0.79-1.993-1.172c-1.327-0.737-2.703-1.459-3.936-2.167c-0.338-0.194-0.63-0.408-0.935-0.592
	c-0.863-0.521-1.744-1.074-2.699-1.601c-1.031-0.568-2.208-0.817-3.224-1.283c-0.353-0.161-0.676-0.328-1.026-0.469
	c-0.332-0.134-0.697-0.256-0.991-0.411c-0.297-0.156-0.665-0.418-0.983-0.568c-1.489-0.701-2.657-0.125-3.854-0.018
	c-0.001,0.422,0.617,1.366,0.617,1.366s0.197,0.375,0.155,0.532c-0.024,0.093-0.056,0.21-0.099,0.323
	c-0.103,0.267-0.31,0.574-0.646,0.797c-0.474,0.313-0.934,0.663-1.318,1.034c-0.072,0.071-0.163,0.171-0.235,0.243
	c-0.067,0.068-0.092,0.129-0.167,0.196c-0.099,0.091-0.238,0.195-0.328,0.287c-0.172,0.176-0.359,0.238-0.317,0.468
	c0.017,0.094,0.034,0.14,0.043,0.208c0.025,0.21,0.271,0.564,0.495,0.766c0.067,0.061,0.141,0.144,0.217,0.203
	c0.702,0.555,1.208,1.112,1.95,1.669c0.263,0.198,0.636,0.385,0.93,0.596c0.843,0.603,1.685,1.137,2.639,1.582
	c0.704,0.326,1.243,0.628,1.932,0.898c0.517,0.202,1.215,0.307,1.754,0.478c0.188,0.06,0.378,0.117,0.596,0.197
	c0.271,0.099,0.634,0.232,0.947,0.34c0.293,0.101,0.603,0.192,0.861,0.256c0.39,0.098,0.848,0.136,1.256,0.242
	c0.442,0.115,1.028,0.339,1.59,0.537c0.523,0.182,1.13,0.352,1.576,0.545c0.859,0.377,1.583,0.766,2.247,1.297
	c0.118,0.097,0.253,0.203,0.368,0.307c0.117,0.105,0.235,0.21,0.337,0.304c0.205,0.192,0.417,0.479,0.689,0.726
	c0.293,0.268,0.478,0.707,0.4,0.959c0.2,0.52,0.063,0.75,0.241,1.201c0.106,0.269,0.188,0.465,0.457,0.762
	c0.089,0.098,0.243,0.24,0.346,0.316c0.15,0.104,0.316,0.178,0.437,0.252c0.5,0.309,0.898,0.737,1.157,1.037
	c0.464,0.545,0.342,0.977-0.357,1.329c-0.108,0.056-0.197,0.115-0.325,0.177c-0.091,0.041-0.194,0.078-0.275,0.131
	c-0.111,0.071-0.25,0.117-0.369,0.188c-0.11,0.065-0.224,0.119-0.346,0.187c-0.113,0.059-0.245,0.117-0.376,0.183
	c-0.134,0.065-0.22,0.136-0.332,0.212c-0.073,0.051-0.134,0.121-0.228,0.176c-0.489,0.283-0.9,0.744-1.625,0.652
	c-0.222-0.027-0.553-0.155-0.806-0.276c-0.316-0.149-0.605-0.399-0.967-0.575c-0.155-0.076-0.277-0.143-0.431-0.213
	c-0.172-0.078-0.344-0.15-0.519-0.246c-0.328-0.172-0.65-0.315-0.948-0.508c-0.941-0.605-1.838-1.137-2.832-1.686
	c-0.436-0.242-0.869-0.457-1.275-0.699c-0.839-0.502-1.625-1.047-2.49-1.505c-0.209-0.11-0.467-0.218-0.718-0.347
	c-0.222-0.112-0.487-0.229-0.711-0.324c-0.469-0.2-1-0.365-1.397-0.561c-0.546-0.268-1.02-0.609-1.494-0.807
	c-0.159-0.066-0.344-0.111-0.533-0.169c-0.119-0.035-0.231-0.073-0.38-0.12c-0.214-0.068-0.466-0.128-0.656-0.191
	c-0.292-0.103-0.55-0.195-0.782-0.256c-0.191-0.047-0.427-0.072-0.649-0.107c-0.4-0.066-1.155-0.367-1.695-0.586
	c-0.288-0.117-0.604-0.264-0.969-0.396c-0.297-0.109-0.826-0.292-0.962-0.248c-0.185,0.059-0.158,0.385-0.222,0.547
	c-0.088,0.223-0.259,0.365-0.352,0.537c-0.087,0.157-0.133,0.322-0.21,0.463c-0.268,0.484-0.583,0.942-0.814,1.443
	c-0.066,0.146-0.085,0.245-0.172,0.385c-0.043,0.07-0.109,0.188-0.15,0.256c-0.037,0.063-0.049,0.127-0.09,0.189
	c-0.033,0.055-0.078,0.115-0.113,0.168c-0.101,0.152-0.131,0.337-0.219,0.494c-0.089,0.16-0.139,0.347-0.181,0.502
	c-0.021,0.078-0.035,0.188-0.064,0.262c-0.078,0.201,2.465,15.533,2.164,15.798c-0.191,0.167-0.696,0.341-0.999,0.495
	c-0.593,0.303-1.15,0.607-1.7,0.895c-0.505,0.263-0.551,1.209-1.511,1.617c-0.217,0.092-0.545-1.146-0.714-1.289
	c-0.178-0.149-0.417-0.654-0.492-0.814c-0.504-0.169-0.664-0.563-0.929-0.811c-0.165-0.152-0.371-0.287-0.5-0.406
	c-0.418-0.387-0.737-0.76-1.233-1.18c-0.163-0.138-0.375-0.266-0.515-0.397c-0.119-0.111-0.174-0.214-0.301-0.322
	c-0.198-0.172-0.497-0.354-0.75-0.542c-0.4-0.298-0.679-0.559-1.006-0.837c-0.119-0.101-0.265-0.198-0.372-0.267
	c-0.177-0.107-0.363-0.182-0.552-0.293c-0.135-0.082-0.35-0.188-0.5-0.291c-0.147-0.101-0.31-0.205-0.456-0.305
	c-0.234-0.152-0.358-0.207-0.614-0.355c-0.153-0.088-0.377-0.227-0.541-0.309c-0.187-0.094-0.362-0.226-0.549-0.324
	c-0.503-0.265-0.951-0.551-1.409-0.824c-0.301-0.182-0.823-0.494-0.823-0.494s-0.975-0.581-1.53-0.938
	c-0.555-0.354-1.118-0.723-1.727-1.129c-1.122-0.75-2.304-1.748-3.509-2.513c1.22,1.089,2.581,2.181,3.91,3.326
	c0.917,0.79,1.991,1.67,2.904,2.491c0.298,0.268,0.595,0.6,0.908,0.809c0.096,0.064,0.203,0.098,0.298,0.152
	c0.628,0.375,1.147,0.85,1.534,1.279c0.145,0.162,0.221,0.334,0.354,0.532c0.132,0.195,0.306,0.402,0.384,0.568
	c0.177,0.381,0.369,0.959,0.14,1.291c-0.096,0.139,0.082,0.59-0.208,0.38c-0.257-0.188-0.554-0.807-0.635-1.032
	c-0.077-0.215-0.326-0.565-0.556-0.784c-0.622-0.592-1.564-1.179-1.751-1.652c-0.038-0.094,0.03-0.201-0.008-0.275
	c-0.069-0.137-0.515-0.475-0.752-0.712c-0.507-0.509-1.083-0.938-1.747-1.45c-0.308-0.238-0.559-0.48-0.827-0.686
	c-0.093-0.072-0.226-0.193-0.298-0.244c-0.218-0.153-0.437-0.346-0.648-0.527c-0.22-0.193-0.433-0.365-0.682-0.551
	c-0.16-0.118-0.262-0.217-0.39-0.322c-0.131-0.107-0.295-0.221-0.434-0.324c-0.298-0.227-0.522-0.416-0.929-0.697
	c-0.676-0.469-1.48-1.131-2.259-1.647c-0.279-0.187-0.513-0.364-0.76-0.555c-0.26-0.197-0.522-0.396-0.79-0.584
	c-0.263-0.187-0.5-0.373-0.737-0.548c-0.552-0.401-1.153-0.813-1.731-1.203c-0.657-0.442-1.469-0.868-1.95-1.271
	c-0.163-0.137-0.294-0.326-0.456-0.506c-0.562-0.623-1.246-1.309-1.655-1.879"/>
<path fill="#1D70B7" d="M39.561,93.173l11.934-6.234c3.734-1.95,8.274-3.406,8.274,4.355c0,8.603-4.906,11.86-8.274,13.364
	c-1.464,0.654-4.649,1.807-4.832,1.792v9.812l-7.102,3.709V93.173z M50.763,99.037c1.391-0.727,1.867-2.037,1.867-3.904
	c0-1.83-0.586-2.439-1.867-1.771l-4.1,2.142v5.674L50.763,99.037z"/>
<path fill="#1D70B7" d="M69.944,77.01c5.821-3.041,6.187-3.231,11.129-4.458v5.454c-0.22,0.115-4.283,1.432-8.932,3.86
	c-3.405,1.778-3.991,3.732-3.991,9.7c0,6.002,0.22,7.024,3.442,5.341c2.27-1.187,2.636-3.062,2.636-3.062V91.1l-1.794,0.937v-4.393
	c1.647-1.74,3.991-3,6.407-4.262c0.769-0.402,1.611-0.805,2.489-1.191v15.961l-5.015,2.619l-2.014-0.742
	c-1.025,1.892-1.61,2.638-4.54,4.349c-7.578,4.437-8.713-1.635-8.713-9.177C61.048,87.038,62.659,80.815,69.944,77.01z"/>
<path fill="#29235C" d="M85.602,74.599h8.925c7.384,0,8.531,7.187,8.531,12.108c0,5.447-2.199,11.911-8.531,11.911h-8.925V74.599z
	 M94.527,96.092c4.33,0,6.104-4.364,6.104-9.417c0-7.022-2.299-9.647-6.104-9.647h-6.499v19.066h6.499V96.092z"/>
<path fill="#29235C" d="M105.846,92.482c0-2.625,1.641-4.364,4.365-4.364c0,0,7.283,0.033,7.283,0c0,0,0.035-2.166,0-2.198
	c0-2.002-1.049-2.691-2.689-2.691c-2.363,0-5.217,0.164-8.4,0.395v-1.772c2.33-0.656,5.25-0.952,8.498-0.984
	c2.724-0.033,5.021,1.444,5.021,5.054V98.62h-1.805l-0.625-2.101c-0.064,0-4.299,2.297-7.283,2.297
	c-2.396,0-4.365-1.541-4.365-4.332V92.482z M110.211,96.389c2.625,0,7.283-1.674,7.283-1.674v-4.693l-7.283,0.525
	c-1.412,0.131-1.938,1.083-1.938,2.133v1.641C108.273,95.895,109.096,96.389,110.211,96.389z"/>
<path fill="#29235C" d="M124.32,81.194l4.232,13.619c0.59,1.869,2.196,1.278,2.165,1.278l4.986-14.897h2.726l-7.681,22.937
	l-2.459,3.35h-1.513l3.087-8.861c-0.689,0-2.855-0.064-3.938-3.607l-4.268-13.816h2.662V81.194z"/>
<path opacity="0.75" fill="#1D1D1B" enable-background="new    " d="M9.997,159.833c-0.066-0.085-0.152-0.179-0.215-0.249
	c-0.149-0.172-0.248-0.314-0.359-0.475c-0.122-0.18-0.144-0.332-0.257-0.508c-0.104-0.164-0.165-0.328-0.272-0.498
	c-0.092-0.146-0.232-0.271-0.299-0.406c-0.062-0.123-0.042-0.242-0.11-0.377c-0.049-0.098-0.169-0.2-0.214-0.299
	c-0.062-0.133-0.038-0.276-0.091-0.438c-0.05-0.148-0.144-0.313-0.167-0.449c-0.05-0.289-0.026-0.57-0.068-0.857
	c-0.015-0.098-0.076-0.207-0.091-0.31c-0.015-0.104,0.031-0.192,0.023-0.292c-0.008-0.111-0.037-0.23-0.038-0.345
	c0-0.116,0.035-0.226,0.038-0.343c0.002-0.115-0.066-0.271-0.077-0.387c-0.01-0.123-0.007-0.233-0.013-0.357
	c-0.007-0.127-0.048-0.258-0.034-0.365c0.015-0.115,0.071-0.223,0.08-0.348c0.01-0.122,0.02-0.232,0.065-0.34
	c0.094-0.225,0.081-0.474,0.145-0.685c0.037-0.116,0.11-0.21,0.148-0.305c0.195-0.483,0.829-0.968,1.177-1.44
	c0.272-0.371,0.484-0.81,1.122-1.135c0.626-0.32,1.32-0.561,2.05-0.691c0.336-0.06,0.715-0.09,1.083-0.146
	c0.339-0.052,0.755-0.076,1.071-0.19c0.382-0.138,0.643-0.377,1.042-0.533c0.4-0.154,0.737-0.365,0.979-0.562
	c0.173-0.14,0.32-0.319,0.477-0.487c0.16-0.17,0.292-0.334,0.403-0.502c0.136-0.207,0.228-0.492,0.357-0.752
	c0.122-0.242,0.322-0.472,0.424-0.727c0.101-0.251,0.249-0.494,0.401-0.739c0.147-0.233,0.371-0.465,0.387-0.731
	c0.007-0.121-0.117-0.328-0.174-0.473c-0.183-0.466-0.503-0.972-0.613-1.42c-0.078-0.318,0.106-0.561,0.415-0.82
	c0.56-0.479,1.09-0.938,1.789-1.398c0.414-0.273,0.765-0.58,1.288-0.813c0.627-0.276,1.154-0.668,1.821-0.98
	c0.302-0.141,0.688-0.24,0.974-0.396c0.205-0.111,0.343-0.27,0.477-0.42c0.215-0.24,0.273-0.531,0.481-0.781
	c0.377-0.455,1.091-0.789,1.875-1.162c0.294-0.141,0.633-0.229,0.918-0.342c0.24-0.094,0.443-0.209,0.705-0.258
	c0.17-0.033,0.408-0.02,0.625-0.039c0.648-0.059,1.229-0.043,1.917,0.039c0.445,0.053,0.876,0.068,1.301,0.1
	c0.906,0.068,1.648,0.113,2.594,0.307c0.227,0.046,0.441,0.104,0.66,0.146c0.235,0.047,0.431,0.095,0.66,0.15
	c0.168,0.041,0.342,0.064,0.523,0.109c0.505,0.125,0.981,0.179,1.497,0.279c0.315,0.063,0.691,0.176,1.038,0.26
	c0.688,0.166,1.277,0.354,2,0.634c0.317,0.124,0.627,0.118,0.98,0.255c0.171,0.066,0.433,0.303,0.674,0.377
	c0.626,0.197,1.35,0.326,1.971,0.473c0.446,0.104,0.903,0.26,1.339,0.358c0.788,0.181,1.467,0.292,2.253,0.505
	c0.325,0.121,0.687,0.219,1.021,0.357c0.31,0.131,0.599,0.264,0.903,0.392c0.151,0.063,0.292,0.147,0.442,0.208
	c0.203,0.079,0.406,0.094,0.596,0.178c0.52,0.021,1.024-0.016,1.608,0.225c0.25-0.198,0.154-0.604,0.643-0.66
	c0.409,0.201,0.154,0.384,0.314,0.579c0.636-0.228,1.393-0.495,1.792-0.892c0.252-0.248,0.434-0.535,0.78-0.844
	c0.201-0.18,0.647-0.906,0.846-0.803c0.208,0.109,0.207,1.211,0.208,1.334c0,0.176-0.014,0.334-0.071,0.443
	c-0.192,0.369-0.506,0.799-1.005,1.164c-0.499,0.363-1.085,0.701-1.794,0.94c0.423,0.196,1.069,0.543,1.532,0.897
	c0.133,0.104,0.284,0.207,0.439,0.304c0.305,0.187,0.641,0.276,0.972,0.428c0.259,0.12,0.554,0.288,0.789,0.463
	c0.116,0.089,0.192,0.231,0.328,0.318c0.137,0.086,0.351,0.116,0.496,0.204c0.147,0.089,0.25,0.25,0.433,0.365
	c0.151,0.095,0.348,0.151,0.449,0.229c0.16,0.121,0.177,0.262,0.318,0.389c0.261,0.233,0.671,0.43,0.882,0.68
	c0.135,0.16,0.05,0.199,0.22,0.361c0.287,0.115,0.499,0.232,0.649,0.442c0.03,0.042,0.007,0.093,0.061,0.147
	c0.069,0.065,0.195,0.121,0.252,0.176c0.17,0.166,0.272,0.326,0.392,0.453c0.236,0.098,0.42,0.189,0.617,0.332
	c0.171,0.121,0.255,0.276,0.43,0.416c0.115,0.092,0.296,0.17,0.401,0.254c0.159,0.127,0.215,0.277,0.332,0.391
	c0.18,0.086,0.237,0.082,0.359,0.174c0.146,0.109,0.065,0.209,0.176,0.292c0.076,0.056,0.266,0.093,0.39,0.157
	c0.121,0.061,0.218,0.179,0.37,0.27c0.241,0.146,0.459,0.185,0.563,0.375c0.199,0.072,0.281,0.086,0.435,0.186
	c0.127,0.083,0.128,0.16,0.233,0.238c0.2,0.146,0.558,0.267,0.582,0.44c0.265,0.077,0.601,0.255,0.668,0.423
	c0.304,0.098,0.56,0.287,0.842,0.461c0.088,0.055,0.136,0.125,0.191,0.157c0.207,0.119,0.6,0.196,0.646,0.409
	c0.269,0.049,0.379,0.207,0.573,0.345c0.292,0.208,0.737,0.397,0.887,0.616c0.167,0.085,0.271,0.107,0.403,0.201
	c0.105,0.074,0.134,0.146,0.227,0.215c0.171,0.129,0.445,0.229,0.47,0.371c0.285,0.148,0.491,0.338,0.672,0.498
	c0.085,0.074,0.112,0.148,0.194,0.23c0.054,0.055,0.142,0.106,0.191,0.157c0.079,0.08,0.066,0.175,0.146,0.257
	c0.061,0.062,0.182,0.109,0.229,0.164c0.073,0.079,0.083,0.186,0.152,0.282c0.088,0.123,0.22,0.269,0.28,0.388
	c0.061,0.125,0.042,0.317,0.079,0.521c0.106,0.588-0.05,1.282-0.641,1.728c-0.445,0.336-1.315,0.668-1.83,0.885
	c-0.195,0.082-0.806,0.063-1.068,0.01c-0.393-0.076-0.882-0.368-0.529-0.527c-0.13-0.359-0.702-0.902-0.749-1.238
	c-0.007-0.055,0.208-0.218,0.328-0.244c0.187-0.043,0.453,0.014,0.65,0.049c0.128,0.023,0.522,0.17,0.66,0.146
	c0.229-0.037,0.32-0.453,0.307-0.564c-0.061-0.518-1.287-1.396-2.436-2.065c-0.58-0.338-1.278-0.669-1.948-1.019
	c-0.689-0.356-1.306-0.789-1.993-1.172c-1.327-0.735-2.703-1.459-3.936-2.166c-0.338-0.194-0.63-0.408-0.935-0.594
	c-0.863-0.521-1.744-1.074-2.699-1.601c-1.031-0.567-2.208-0.817-3.224-1.282c-0.353-0.161-0.676-0.328-1.026-0.469
	c-0.332-0.135-0.697-0.258-0.991-0.411c-0.297-0.156-0.665-0.419-0.983-0.567c-1.489-0.701-2.657-0.125-3.854-0.019
	c-0.001,0.423,0.617,1.366,0.617,1.366s0.197,0.375,0.155,0.531c-0.024,0.094-0.056,0.211-0.099,0.323
	c-0.103,0.267-0.31,0.574-0.646,0.798c-0.474,0.313-0.934,0.661-1.318,1.032c-0.072,0.07-0.163,0.173-0.235,0.243
	c-0.067,0.068-0.092,0.129-0.167,0.195c-0.099,0.091-0.238,0.195-0.328,0.287c-0.172,0.176-0.359,0.238-0.317,0.467
	c0.017,0.095,0.034,0.142,0.043,0.209c0.025,0.21,0.271,0.563,0.495,0.767c0.067,0.062,0.141,0.144,0.217,0.203
	c0.702,0.556,1.208,1.11,1.95,1.668c0.263,0.198,0.636,0.386,0.93,0.597c0.843,0.604,1.685,1.137,2.639,1.582
	c0.704,0.325,1.243,0.627,1.932,0.897c0.517,0.2,1.215,0.308,1.754,0.478c0.188,0.061,0.378,0.116,0.596,0.196
	c0.271,0.101,0.634,0.231,0.947,0.34c0.293,0.103,0.603,0.192,0.861,0.257c0.39,0.098,0.848,0.137,1.256,0.241
	c0.442,0.115,1.028,0.341,1.59,0.537c0.523,0.183,1.13,0.353,1.576,0.545c0.859,0.376,1.583,0.767,2.247,1.298
	c0.118,0.096,0.253,0.202,0.368,0.305c0.117,0.105,0.235,0.211,0.337,0.305c0.205,0.193,0.417,0.479,0.689,0.727
	c0.293,0.266,0.478,0.707,0.4,0.959c0.2,0.519,0.063,0.748,0.241,1.2c0.106,0.269,0.188,0.466,0.457,0.761
	c0.089,0.099,0.243,0.24,0.346,0.316c0.15,0.105,0.316,0.178,0.437,0.252c0.5,0.311,0.898,0.738,1.157,1.038
	c0.464,0.545,0.342,0.976-0.357,1.329c-0.108,0.055-0.197,0.115-0.325,0.176c-0.091,0.041-0.194,0.079-0.275,0.131
	c-0.111,0.072-0.25,0.117-0.369,0.189c-0.11,0.066-0.224,0.119-0.346,0.186c-0.113,0.059-0.245,0.118-0.376,0.184
	c-0.134,0.065-0.22,0.136-0.332,0.211c-0.073,0.052-0.134,0.121-0.228,0.177c-0.489,0.282-0.9,0.743-1.625,0.651
	c-0.222-0.026-0.553-0.154-0.806-0.275c-0.316-0.148-0.605-0.398-0.967-0.576c-0.155-0.074-0.277-0.143-0.431-0.212
	c-0.172-0.078-0.344-0.151-0.519-0.246c-0.328-0.173-0.65-0.315-0.948-0.508c-0.941-0.604-1.838-1.138-2.832-1.687
	c-0.436-0.242-0.869-0.457-1.275-0.699c-0.839-0.502-1.625-1.047-2.49-1.504c-0.209-0.11-0.467-0.217-0.718-0.348
	c-0.222-0.111-0.487-0.229-0.711-0.324c-0.469-0.199-1-0.365-1.397-0.56c-0.546-0.269-1.02-0.61-1.494-0.808
	c-0.159-0.065-0.344-0.111-0.533-0.168c-0.119-0.035-0.231-0.073-0.38-0.121c-0.214-0.068-0.466-0.127-0.656-0.191
	c-0.292-0.102-0.55-0.195-0.782-0.255c-0.191-0.047-0.427-0.072-0.649-0.108c-0.4-0.066-1.155-0.367-1.695-0.586
	c-0.288-0.117-0.604-0.264-0.969-0.396c-0.297-0.11-0.826-0.292-0.962-0.248c-0.185,0.06-0.158,0.385-0.222,0.546
	c-0.088,0.225-0.259,0.365-0.352,0.538c-0.087,0.157-0.133,0.321-0.21,0.463c-0.268,0.483-0.583,0.942-0.814,1.442
	c-0.066,0.146-0.085,0.246-0.172,0.386c-0.043,0.069-0.109,0.188-0.15,0.255c-0.037,0.063-0.049,0.128-0.09,0.189
	c-0.033,0.056-0.078,0.115-0.113,0.168c-0.101,0.152-0.131,0.338-0.219,0.494c-0.089,0.162-0.139,0.348-0.181,0.502
	c-0.021,0.078-0.035,0.188-0.064,0.262c-0.078,0.201,2.465,15.533,2.164,15.799c-0.191,0.167-0.696,0.341-0.999,0.494
	c-0.593,0.304-1.15,0.609-1.7,0.896c-0.505,0.262-0.551,1.209-1.511,1.616c-0.217,0.093-0.545-1.146-0.714-1.289
	c-0.178-0.149-0.417-0.653-0.492-0.815c-0.504-0.168-0.664-0.562-0.929-0.81c-0.165-0.153-0.371-0.287-0.5-0.405
	c-0.418-0.388-0.737-0.761-1.233-1.181c-0.163-0.138-0.375-0.267-0.515-0.397c-0.119-0.111-0.174-0.213-0.301-0.322
	c-0.198-0.172-0.497-0.354-0.75-0.543c-0.4-0.297-0.679-0.557-1.006-0.836c-0.119-0.1-0.265-0.198-0.372-0.266
	c-0.177-0.109-0.363-0.183-0.552-0.293c-0.135-0.082-0.35-0.189-0.5-0.291c-0.147-0.102-0.31-0.207-0.456-0.306
	c-0.234-0.153-0.358-0.208-0.614-0.354c-0.153-0.088-0.377-0.228-0.541-0.31c-0.187-0.095-0.362-0.226-0.549-0.324
	c-0.503-0.265-0.951-0.551-1.409-0.825c-0.301-0.181-0.823-0.494-0.823-0.494s-0.975-0.58-1.53-0.937
	c-0.555-0.354-1.118-0.724-1.727-1.129c-1.122-0.751-2.304-1.749-3.509-2.513c1.22,1.089,2.581,2.181,3.91,3.326
	c0.917,0.789,1.991,1.67,2.904,2.49c0.298,0.268,0.595,0.6,0.908,0.809c0.096,0.066,0.203,0.098,0.298,0.152
	c0.628,0.375,1.147,0.85,1.534,1.28c0.145,0.161,0.221,0.333,0.354,0.532c0.132,0.195,0.306,0.402,0.384,0.568
	c0.177,0.381,0.369,0.959,0.14,1.291c-0.096,0.139,0.082,0.59-0.208,0.379c-0.257-0.187-0.554-0.806-0.635-1.031
	c-0.077-0.215-0.326-0.566-0.556-0.785c-0.622-0.592-1.564-1.178-1.751-1.652c-0.038-0.094,0.03-0.201-0.008-0.275
	c-0.069-0.137-0.515-0.473-0.752-0.711c-0.507-0.508-1.083-0.938-1.747-1.45c-0.308-0.238-0.559-0.481-0.827-0.687
	c-0.093-0.072-0.226-0.193-0.298-0.244c-0.218-0.152-0.437-0.345-0.648-0.526c-0.22-0.194-0.433-0.366-0.682-0.552
	c-0.16-0.117-0.262-0.217-0.39-0.321c-0.131-0.106-0.295-0.222-0.434-0.324c-0.298-0.228-0.522-0.416-0.929-0.698
	c-0.676-0.469-1.48-1.129-2.259-1.646c-0.279-0.186-0.513-0.365-0.76-0.555c-0.26-0.197-0.522-0.396-0.79-0.584
	c-0.263-0.187-0.5-0.373-0.737-0.547c-0.552-0.402-1.153-0.814-1.731-1.205c-0.657-0.441-1.469-0.867-1.95-1.271
	c-0.163-0.138-0.294-0.326-0.456-0.506c-0.562-0.623-1.246-1.31-1.655-1.88"/>
<path fill="#FFFFFF" d="M39.561,155.424l11.934-6.234c3.734-1.949,8.274-3.405,8.274,4.355c0,8.602-4.906,11.859-8.274,13.363
	c-1.464,0.654-4.649,1.807-4.832,1.792v9.812l-7.102,3.709V155.424z M50.763,161.287c1.391-0.727,1.867-2.037,1.867-3.904
	c0-1.83-0.586-2.439-1.867-1.771l-4.1,2.143v5.674L50.763,161.287z"/>
<path fill="#FFFFFF" d="M69.944,139.26c5.821-3.039,6.187-3.23,11.129-4.457v5.453c-0.22,0.115-4.283,1.432-8.932,3.86
	c-3.405,1.778-3.991,3.731-3.991,9.7c0,6.002,0.22,7.022,3.442,5.34c2.27-1.186,2.636-3.061,2.636-3.061v-2.746l-1.794,0.938v-4.393
	c1.647-1.74,3.991-3,6.407-4.263c0.769-0.401,1.611-0.805,2.489-1.19v15.963l-5.015,2.619l-2.014-0.742
	c-1.025,1.891-1.61,2.637-4.54,4.348c-7.578,4.436-8.713-1.635-8.713-9.177C61.048,149.288,62.659,143.064,69.944,139.26z"/>
<path fill="#FFFFFF" d="M85.602,136.85h8.925c7.384,0,8.531,7.187,8.531,12.107c0,5.447-2.199,11.911-8.531,11.911h-8.925V136.85z
	 M94.527,158.342c4.33,0,6.104-4.363,6.104-9.418c0-7.021-2.299-9.646-6.104-9.646h-6.499v19.064H94.527z"/>
<path fill="#FFFFFF" d="M105.846,154.732c0-2.625,1.641-4.364,4.365-4.364c0,0,7.283,0.032,7.283,0c0,0,0.035-2.165,0-2.198
	c0-2.002-1.049-2.691-2.689-2.691c-2.363,0-5.217,0.164-8.4,0.396v-1.772c2.33-0.656,5.25-0.951,8.498-0.983
	c2.724-0.032,5.021,1.444,5.021,5.054v12.698h-1.805l-0.625-2.101c-0.064,0-4.299,2.297-7.283,2.297
	c-2.396,0-4.365-1.541-4.365-4.33V154.732z M110.211,158.639c2.625,0,7.283-1.674,7.283-1.674v-4.693l-7.283,0.525
	c-1.412,0.131-1.938,1.082-1.938,2.133v1.641C108.273,158.145,109.096,158.639,110.211,158.639z"/>
<path fill="#FFFFFF" d="M124.32,143.443l4.232,13.619c0.59,1.869,2.196,1.278,2.165,1.278l4.986-14.897h2.726l-7.681,22.938
	l-2.459,3.35h-1.513l3.087-8.861c-0.689,0-2.855-0.064-3.938-3.607l-4.268-13.816h2.662V143.443z"/>
</svg>
