<?xml version="1.0" encoding="utf-8"?>
<!-- Generator: Adobe Illustrator 19.2.1, SVG Export Plug-In . SVG Version: 6.00 Build 0)  -->
<svg version="1.1" xmlns="http://www.w3.org/2000/svg" xmlns:xlink="http://www.w3.org/1999/xlink" x="0px" y="0px"
	 viewBox="0 0 1024 768" style="enable-background:new 0 0 1024 768;" xml:space="preserve">
<style type="text/css">
	.st0{fill:#EB7224;}
	.st1{fill:#231F20;}
	.st2{clip-path:url(#XMLID_4_);}
	.st3{fill:#F9A21B;}
	.st4{fill:#E84B25;}
	.st5{display:none;}
	.st6{display:inline;}
	.st7{clip-path:url(#XMLID_12_);}
	.st8{font-family:'MyriadPro-Regular';}
	.st9{font-size:26.4368px;}
	.st10{clip-path:url(#XMLID_13_);}
	.st11{display:inline;fill:#231F20;}
	.st12{font-size:56.3445px;}
</style>
<g id="Layer_1">
	<g>
		<path id="XMLID_62_" d="M183.9,553.6v-86.2h34.6c17.3,0,27,11.9,27,26c0,14.1-9.9,26-27,26h-23.9v34.2H183.9z M234.4,493.4
			c0-9.7-7-16.4-17.2-16.4h-22.6v32.8h22.6C227.5,509.8,234.4,503.1,234.4,493.4z"/>
		<path id="XMLID_59_" d="M255.5,510.6c0-25.5,17.2-44.6,42.8-44.6c25.5,0,42.8,19.1,42.8,44.6c0,25.5-17.3,44.6-42.8,44.6
			C272.7,555.2,255.5,536,255.5,510.6z M329.9,510.6c0-20.2-12.4-35-31.7-35c-19.4,0-31.7,14.9-31.7,35c0,20,12.3,35,31.7,35
			C317.5,545.6,329.9,530.6,329.9,510.6z"/>
		<path id="XMLID_57_" d="M350.9,541.5l6.3-8.1c5.7,6.3,15,12.3,27.1,12.3c15.4,0,20.3-8.3,20.3-14.9c0-22.2-51-9.9-51-40.7
			c0-14.2,12.7-23.9,29.6-23.9c13.2,0,23.4,4.4,30.6,12l-6.5,7.9c-6.5-7.1-15.5-10.3-24.9-10.3c-10.3,0-17.7,5.6-17.7,13.7
			c0,19.4,51,8.3,51,40.4c0,12.5-8.5,25.3-31.8,25.3C369,555.2,358,549.5,350.9,541.5z"/>
		<path id="XMLID_55_" d="M454.9,553.6V477h-27.3v-9.6H493v9.6h-27.4v76.6H454.9z"/>
		<path id="XMLID_53_" d="M498.8,510.6c0-26.7,19.8-44.6,44.3-44.6c15.2,0,25.8,6.7,33.5,16.1l-8.5,5.3c-5.4-7-14.6-11.9-24.9-11.9
			c-18.9,0-33.2,14.5-33.2,35c0,20.4,14.3,35.1,33.2,35.1c10.3,0,18.9-5,23.1-9.3v-17.6h-29.6v-9.6H577v31.1
			c-8,8.9-19.8,14.9-33.9,14.9C518.6,555.3,498.8,537.3,498.8,510.6z"/>
		<path id="XMLID_44_" d="M646,553.6l-22-34.2h-17.2v34.2h-10.7v-86.2h34.6c15.8,0,27,10.1,27,26c0,15.5-10.6,24-22.4,25.1
			l23.3,35.1H646z M646.6,493.4c0-9.7-7-16.4-17.2-16.4h-22.6v32.9h22.6C639.7,509.9,646.6,503.1,646.6,493.4z"/>
		<path id="XMLID_42_" class="st0" d="M677,553.6v-86.2h56.5v9.6h-45.7v27.8h44.8v9.6h-44.8V544h45.7v9.6H677z"/>
		<path id="XMLID_40_" d="M747.6,541.5l6.3-8.1c5.7,6.3,15,12.3,27.1,12.3c15.4,0,20.3-8.3,20.3-14.9c0-22.2-51-9.9-51-40.7
			c0-14.2,12.7-23.9,29.6-23.9c13.2,0,23.4,4.4,30.6,12L804,486c-6.5-7.1-15.5-10.3-24.9-10.3c-10.3,0-17.7,5.6-17.7,13.7
			c0,19.4,51,8.3,51,40.4c0,12.5-8.5,25.3-31.8,25.3C765.7,555.2,754.7,549.5,747.6,541.5z"/>
		<g id="XMLID_3_">
			<g id="XMLID_34_">
				<path id="XMLID_35_" class="st1" d="M388.4,432.5V173.1h102.3c81.3,0,137.7,51.7,137.7,129.9c0,78.2-56.4,129.5-137.7,129.5
					H388.4z M572,303c0-45.9-28-81.3-81.3-81.3h-47.1v162.2h47.1C542,383.9,572,346.9,572,303z"/>
			</g>
			<g id="XMLID_29_">
				<path id="XMLID_30_" class="st1" d="M602,432.5V173.1h136.5c49.4,0,74.7,31.5,74.7,66.1c0,32.7-20.2,54.5-44.7,59.5
					c27.6,4.3,49.8,31.1,49.8,63.8c0,38.9-26.1,70-75.5,70H602z M756.8,248.9c0-16.3-11.7-28.4-30.3-28.4h-69.2v56.4h69.2
					C745.1,276.9,756.8,265.3,756.8,248.9z M761.9,354.7c0-16.3-11.7-30.3-33.5-30.3h-71.2v60.3h71.2
					C749.4,384.7,761.9,373.4,761.9,354.7z"/>
			</g>
			<g id="XMLID_17_">
				<defs>
					<path id="XMLID_19_" d="M184.2,432.5V173h183.6v48.6H239.4v54.8h125.6v48.6H239.4v58.7h128.4v48.6H184.2z"/>
				</defs>
				<clipPath id="XMLID_4_">
					<use xlink:href="#XMLID_19_"  style="overflow:visible;"/>
				</clipPath>
				<g id="XMLID_21_" class="st2">
					<g id="XMLID_22_">
						<g id="XMLID_23_">
							<g id="XMLID_24_">
								<path id="XMLID_28_" class="st3" d="M290.9,79.2C185,79.2,97.6,157.9,83.8,260c16.7-4.3,34.2-6.6,52.2-6.6
									c8.6,0,17.1,0.6,25.5,1.6c6.2,0.8,12.4,1.8,18.5,3.1c12.5,2.7,24.6,6.4,36.2,11.2c13.3-40.3,38.5-75.2,71.4-100.5
									c6.2-4.7,12.6-9.2,19.2-13.2c31.5-19,68.5-30,108-30c2.6,0,5.1,0.1,7.7,0.2C386.5,96.7,340.7,79.2,290.9,79.2z"/>
								<path id="XMLID_27_" class="st0" d="M215.7,398.7c-2.6-8.1-4.7-16.5-6.4-25c-2.4-12.6-3.7-25.6-3.7-38.9
									c0-22.8,3.7-44.8,10.5-65.3c-11.6-4.8-23.7-8.6-36.2-11.2c-6.1-1.3-12.2-2.4-18.5-3.1c-8.3-1-16.8-1.6-25.5-1.6
									c-18,0-35.6,2.3-52.2,6.6c-1.2,9.2-2,18.7-2,28.3c0,112.9,89.5,204.8,201.3,208.9C252,471.8,228.3,437.8,215.7,398.7z"/>
								<path id="XMLID_26_" class="st0" d="M422.5,125.9c-2.6-0.1-5.1-0.2-7.7-0.2c-39.5,0-76.5,11-108,30c-6.6,4-13,8.5-19.2,13.2
									c-33,25.3-58.2,60.2-71.4,100.5c19.2,8,36.9,18.7,52.7,31.7c18.6,15.4,34.6,33.9,47,54.7c7.5,12.6,13.7,26.2,18.4,40.3
									c1.8,5.5,3.5,11,4.9,16.7c3.9,15.9,6,32.5,6,49.7c0,9.6-0.7,19-1.9,28.2c90.2-23.2,156.8-105.1,156.8-202.5
									C499.9,222.7,469.7,164.2,422.5,125.9z"/>
								<path id="XMLID_25_" class="st4" d="M339.1,412.8c-1.4-5.7-3.1-11.2-4.9-16.7c-4.7-14.2-10.9-27.7-18.4-40.3
									c-12.4-20.9-28.3-39.4-47-54.7c-15.8-13-33.5-23.8-52.7-31.7c-6.8,20.6-10.5,42.5-10.5,65.3c0,13.3,1.3,26.3,3.7,38.9
									c1.6,8.5,3.7,16.9,6.4,25c12.6,39.1,36.3,73.2,67.4,98.5c2.5,0.1,5.1,0.2,7.7,0.2c18,0,35.5-2.3,52.2-6.6
									c1.2-9.2,1.9-18.7,1.9-28.2C345.1,445.4,343,428.7,339.1,412.8z"/>
							</g>
						</g>
					</g>
				</g>
			</g>
		</g>
		<g>
			<path class="st1" d="M830.4,173.1l0,2.2l-4.3,0l-0.1,11.3l-2.7,0l0.1-11.3l-4.3,0l0-2.2L830.4,173.1z M844.9,186.8l-0.4-8
				c0-1,0-2.3-0.1-3.8l-0.2,0c-0.4,1.2-0.8,2.8-1.2,4l-2.5,7.5l-2.8,0l-2.4-7.7c-0.2-1-0.6-2.6-0.9-3.8l-0.2,0
				c0,1.2-0.1,2.5-0.1,3.8l-0.6,8l-2.6,0l1.1-13.5l4,0l2.3,6.6c0.3,1,0.5,2,0.9,3.4l0,0c0.4-1.2,0.7-2.4,1-3.4l2.4-6.7l3.9,0
				l0.9,13.6L844.9,186.8z"/>
		</g>
	</g>
</g>
<g id="Layer_3" class="st5">
	<g id="XMLID_6_" class="st6">
		<g id="XMLID_10_">
			<g id="XMLID_135_">
				<path id="XMLID_136_" class="st1" d="M347.5,411.6v-95.3h37.6c29.9,0,50.6,19,50.6,47.7c0,28.7-20.7,47.6-50.6,47.6H347.5z
					 M414.9,364c0-16.9-10.3-29.9-29.9-29.9h-17.3v59.6h17.3C403.9,393.7,414.9,380.2,414.9,364z"/>
			</g>
			<g id="XMLID_130_">
				<path id="XMLID_131_" class="st1" d="M425.9,411.6v-95.3h50.2c18.1,0,27.4,11.6,27.4,24.3c0,12-7.4,20-16.4,21.9
					c10.1,1.6,18.3,11.4,18.3,23.4c0,14.3-9.6,25.7-27.7,25.7H425.9z M482.8,344.1c0-6-4.3-10.4-11.1-10.4h-25.4v20.7h25.4
					C478.5,354.4,482.8,350.1,482.8,344.1z M484.7,383c0-6-4.3-11.1-12.3-11.1h-26.2V394h26.2C480.1,394,484.7,389.9,484.7,383z"/>
			</g>
			<g id="XMLID_118_">
				<defs>
					<path id="XMLID_120_" d="M272.5,411.6v-95.3h67.5v17.9h-47.2v20.1h46.2v17.9h-46.2v21.6h47.2v17.9H272.5z"/>
				</defs>
				<clipPath id="XMLID_12_">
					<use xlink:href="#XMLID_120_"  style="overflow:visible;"/>
				</clipPath>
				<g id="XMLID_122_" class="st7">
					<g id="XMLID_123_">
						<g id="XMLID_124_">
							<g id="XMLID_125_">
								<path id="XMLID_129_" class="st3" d="M311.7,281.8c-38.9,0-71,28.9-76.1,66.4c6.1-1.6,12.6-2.4,19.2-2.4
									c3.2,0,6.3,0.2,9.3,0.6c2.3,0.3,4.6,0.7,6.8,1.1c4.6,1,9.1,2.4,13.3,4.1c4.9-14.8,14.1-27.6,26.2-36.9
									c2.3-1.7,4.6-3.4,7.1-4.8c11.6-7,25.1-11,39.7-11c0.9,0,1.9,0,2.8,0.1C346.8,288.2,330,281.8,311.7,281.8z"/>
								<path id="XMLID_128_" class="st0" d="M284,399.2c-1-3-1.7-6.1-2.3-9.2c-0.9-4.6-1.3-9.4-1.3-14.3c0-8.4,1.4-16.4,3.9-24
									c-4.3-1.8-8.7-3.1-13.3-4.1c-2.2-0.5-4.5-0.9-6.8-1.1c-3.1-0.4-6.2-0.6-9.3-0.6c-6.6,0-13.1,0.8-19.2,2.4
									c-0.5,3.4-0.7,6.9-0.7,10.4c0,41.5,32.9,75.2,74,76.7C297.4,426,288.7,413.5,284,399.2z"/>
								<path id="XMLID_127_" class="st0" d="M360,298.9c-0.9,0-1.9-0.1-2.8-0.1c-14.5,0-28.1,4-39.7,11c-2.4,1.5-4.8,3.1-7.1,4.8
									c-12.1,9.3-21.4,22.1-26.2,36.9c7,2.9,13.5,6.9,19.3,11.7c6.8,5.6,12.7,12.4,17.3,20.1c2.8,4.6,5,9.6,6.7,14.8
									c0.7,2,1.3,4,1.8,6.1c1.4,5.9,2.2,12,2.2,18.2c0,3.5-0.3,7-0.7,10.4c33.1-8.5,57.6-38.6,57.6-74.4
									C388.5,334.5,377.3,313,360,298.9z"/>
								<path id="XMLID_126_" class="st4" d="M329.4,404.3c-0.5-2.1-1.1-4.1-1.8-6.1c-1.7-5.2-4-10.2-6.7-14.8
									c-4.6-7.7-10.4-14.5-17.3-20.1c-5.8-4.8-12.3-8.7-19.3-11.7c-2.5,7.6-3.9,15.6-3.9,24c0,4.9,0.5,9.7,1.3,14.3
									c0.6,3.1,1.4,6.2,2.3,9.2c4.6,14.4,13.3,26.9,24.8,36.2c0.9,0,1.9,0.1,2.8,0.1c6.6,0,13.1-0.8,19.2-2.4
									c0.5-3.4,0.7-6.9,0.7-10.4C331.6,416.3,330.8,410.2,329.4,404.3z"/>
							</g>
						</g>
					</g>
				</g>
			</g>
			<g id="XMLID_11_">
				<g id="XMLID_66_">
					<path id="XMLID_67_" class="st1" d="M505.3,317.3c0.7,0,1.3,0.2,2,0.5c0.6,0.3,1.1,0.8,1.5,1.5c0.4,0.6,0.5,1.3,0.5,2
						c0,0.7-0.2,1.4-0.5,2c-0.4,0.6-0.8,1.1-1.5,1.5c-0.6,0.4-1.3,0.5-2,0.5c-0.7,0-1.4-0.2-2-0.5c-0.6-0.4-1.1-0.8-1.5-1.5
						c-0.4-0.6-0.5-1.3-0.5-2c0-0.7,0.2-1.4,0.5-2c0.4-0.6,0.9-1.1,1.5-1.5C504,317.4,504.6,317.3,505.3,317.3z M505.3,318
						c-0.6,0-1.1,0.1-1.6,0.4c-0.5,0.3-0.9,0.7-1.2,1.2c-0.3,0.5-0.4,1.1-0.4,1.6c0,0.6,0.1,1.1,0.4,1.6c0.3,0.5,0.7,0.9,1.2,1.2
						c0.5,0.3,1,0.4,1.6,0.4c0.6,0,1.1-0.1,1.6-0.4c0.5-0.3,0.9-0.7,1.2-1.2c0.3-0.5,0.4-1,0.4-1.6c0-0.6-0.1-1.1-0.4-1.6
						c-0.3-0.5-0.7-0.9-1.2-1.2C506.4,318.2,505.9,318,505.3,318z M503.5,323.4v-4.3h0.9c0.8,0,1.3,0,1.4,0c0.3,0,0.5,0.1,0.7,0.2
						c0.2,0.1,0.3,0.2,0.4,0.4c0.1,0.2,0.2,0.4,0.2,0.6c0,0.3-0.1,0.6-0.3,0.8c-0.2,0.2-0.5,0.4-0.8,0.4c0.1,0,0.2,0.1,0.3,0.2
						c0.1,0.1,0.2,0.2,0.3,0.3c0,0,0.1,0.2,0.3,0.5l0.5,0.9h-1.1l-0.4-0.7c-0.2-0.5-0.4-0.8-0.6-0.9c-0.2-0.1-0.4-0.2-0.6-0.2h-0.2
						v1.7H503.5z M504.4,321h0.4c0.5,0,0.8,0,0.9-0.1c0.1,0,0.2-0.1,0.3-0.2c0.1-0.1,0.1-0.2,0.1-0.3c0-0.1,0-0.2-0.1-0.3
						c-0.1-0.1-0.2-0.2-0.3-0.2c-0.1,0-0.4-0.1-0.9-0.1h-0.4V321z"/>
				</g>
			</g>
		</g>
		<g id="XMLID_7_">
			<text id="XMLID_9_" transform="matrix(1 0 0 1 543.3638 372.1426)" class="st1 st8 st9">P</text>
			<text id="XMLID_8_" transform="matrix(1 0 0 1 557.4116 372.1426)" class="st1 st8 st9">ostgres for the Enterprise.</text>
		</g>
	</g>
</g>
<g id="Layer_2" class="st5">
	<g id="XMLID_5_" class="st6">
		<path id="XMLID_113_" d="M688.9,400.4V386h5.8c2.9,0,4.5,2,4.5,4.3c0,2.4-1.7,4.3-4.5,4.3h-4v5.7H688.9z M697.4,390.4
			c0-1.6-1.2-2.7-2.9-2.7h-3.8v5.5h3.8C696.2,393.1,697.4,392,697.4,390.4z"/>
		<path id="XMLID_110_" d="M700.9,393.2c0-4.3,2.9-7.5,7.1-7.5c4.3,0,7.1,3.2,7.1,7.5s-2.9,7.5-7.1,7.5
			C703.7,400.7,700.9,397.5,700.9,393.2z M713.3,393.2c0-3.4-2.1-5.9-5.3-5.9c-3.2,0-5.3,2.5-5.3,5.9c0,3.3,2.1,5.9,5.3,5.9
			C711.2,399.1,713.3,396.6,713.3,393.2z"/>
		<path id="XMLID_108_" d="M716.8,398.4l1.1-1.4c1,1.1,2.5,2.1,4.5,2.1c2.6,0,3.4-1.4,3.4-2.5c0-3.7-8.5-1.7-8.5-6.8
			c0-2.4,2.1-4,4.9-4c2.2,0,3.9,0.7,5.1,2l-1.1,1.3c-1.1-1.2-2.6-1.7-4.2-1.7c-1.7,0-3,0.9-3,2.3c0,3.2,8.5,1.4,8.5,6.8
			c0,2.1-1.4,4.2-5.3,4.2C719.8,400.7,718,399.7,716.8,398.4z"/>
		<path id="XMLID_106_" d="M734.2,400.4v-12.8h-4.6V386h10.9v1.6H736v12.8H734.2z"/>
		<path id="XMLID_104_" d="M741.5,393.2c0-4.5,3.3-7.5,7.4-7.5c2.5,0,4.3,1.1,5.6,2.7l-1.4,0.9c-0.9-1.2-2.4-2-4.2-2
			c-3.2,0-5.6,2.4-5.6,5.9c0,3.4,2.4,5.9,5.6,5.9c1.7,0,3.2-0.8,3.9-1.6v-2.9h-4.9V393h6.7v5.2c-1.3,1.5-3.3,2.5-5.7,2.5
			C744.9,400.7,741.5,397.7,741.5,393.2z"/>
		<path id="XMLID_101_" d="M766.1,400.4l-3.7-5.7h-2.9v5.7h-1.8V386h5.8c2.6,0,4.5,1.7,4.5,4.3c0,2.6-1.8,4-3.7,4.2l3.9,5.9H766.1z
			 M766.3,390.4c0-1.6-1.2-2.7-2.9-2.7h-3.8v5.5h3.8C765.1,393.1,766.3,392,766.3,390.4z"/>
		<path id="XMLID_99_" d="M771.3,400.4V386h9.4v1.6h-7.6v4.6h7.5v1.6h-7.5v5h7.6v1.6H771.3z"/>
		<path id="XMLID_97_" d="M783.1,398.4l1.1-1.4c1,1.1,2.5,2.1,4.5,2.1c2.6,0,3.4-1.4,3.4-2.5c0-3.7-8.5-1.7-8.5-6.8
			c0-2.4,2.1-4,4.9-4c2.2,0,3.9,0.7,5.1,2l-1.1,1.3c-1.1-1.2-2.6-1.7-4.2-1.7c-1.7,0-3,0.9-3,2.3c0,3.2,8.5,1.4,8.5,6.8
			c0,2.1-1.4,4.2-5.3,4.2C786.2,400.7,784.3,399.7,783.1,398.4z"/>
		<path id="XMLID_93_" class="st1" d="M723.1,380.2v-43.4h17.1c13.6,0,23,8.6,23,21.7c0,13.1-9.4,21.7-23,21.7H723.1z M753.8,358.5
			c0-7.7-4.7-13.6-13.6-13.6h-7.9v27.1h7.9C748.8,372.1,753.8,365.9,753.8,358.5z"/>
		<path id="XMLID_88_" class="st1" d="M758.8,380.2v-43.4h22.8c8.3,0,12.5,5.3,12.5,11.1c0,5.5-3.4,9.1-7.5,9.9
			c4.6,0.7,8.3,5.2,8.3,10.7c0,6.5-4.4,11.7-12.6,11.7H758.8z M784.7,349.5c0-2.7-2-4.7-5.1-4.7H768v9.4h11.6
			C782.7,354.2,784.7,352.2,784.7,349.5z M785.5,367.2c0-2.7-2-5.1-5.6-5.1H768v10.1h11.9C783.4,372.2,785.5,370.3,785.5,367.2z"/>
		<g id="XMLID_75_">
			<defs>
				<path id="XMLID_77_" d="M689,380.2v-43.4h30.7v8.1h-21.5v9.2h21v8.1h-21v9.8h21.5v8.1H689z"/>
			</defs>
			<clipPath id="XMLID_13_">
				<use xlink:href="#XMLID_77_"  style="overflow:visible;"/>
			</clipPath>
			<g id="XMLID_80_" class="st10">
				<g id="XMLID_81_">
					<g id="XMLID_82_">
						<path id="XMLID_86_" class="st3" d="M706.8,321.1c-17.7,0-32.3,13.2-34.6,30.2c2.8-0.7,5.7-1.1,8.7-1.1c1.4,0,2.9,0.1,4.3,0.3
							c1,0.1,2.1,0.3,3.1,0.5c2.1,0.4,4.1,1.1,6.1,1.9c2.2-6.7,6.4-12.6,11.9-16.8c1-0.8,2.1-1.5,3.2-2.2c5.3-3.2,11.4-5,18.1-5
							c0.4,0,0.9,0,1.3,0C722.8,324,715.1,321.1,706.8,321.1z"/>
						<path id="XMLID_85_" class="st0" d="M694.2,374.5c-0.4-1.4-0.8-2.8-1.1-4.2c-0.4-2.1-0.6-4.3-0.6-6.5c0-3.8,0.6-7.5,1.8-10.9
							c-1.9-0.8-4-1.4-6.1-1.9c-1-0.2-2-0.4-3.1-0.5c-1.4-0.2-2.8-0.3-4.3-0.3c-3,0-5.9,0.4-8.7,1.1c-0.2,1.5-0.3,3.1-0.3,4.7
							c0,18.9,15,34.2,33.7,34.9C700.3,386.8,696.3,381.1,694.2,374.5z"/>
						<path id="XMLID_84_" class="st0" d="M728.8,328.9c-0.4,0-0.9,0-1.3,0c-6.6,0-12.8,1.8-18.1,5c-1.1,0.7-2.2,1.4-3.2,2.2
							c-5.5,4.2-9.7,10.1-11.9,16.8c3.2,1.3,6.2,3.1,8.8,5.3c3.1,2.6,5.8,5.7,7.9,9.1c1.3,2.1,2.3,4.4,3.1,6.7
							c0.3,0.9,0.6,1.8,0.8,2.8c0.7,2.7,1,5.4,1,8.3c0,1.6-0.1,3.2-0.3,4.7c15.1-3.9,26.2-17.6,26.2-33.8
							C741.7,345.1,736.7,335.3,728.8,328.9z"/>
						<path id="XMLID_83_" class="st4" d="M714.8,376.9c-0.2-0.9-0.5-1.9-0.8-2.8c-0.8-2.4-1.8-4.6-3.1-6.7
							c-2.1-3.5-4.7-6.6-7.9-9.1c-2.6-2.2-5.6-4-8.8-5.3c-1.1,3.4-1.8,7.1-1.8,10.9c0,2.2,0.2,4.4,0.6,6.5c0.3,1.4,0.6,2.8,1.1,4.2
							c2.1,6.5,6.1,12.2,11.3,16.5c0.4,0,0.9,0,1.3,0c3,0,5.9-0.4,8.7-1.1c0.2-1.5,0.3-3.1,0.3-4.7
							C715.8,382.3,715.5,379.5,714.8,376.9z"/>
					</g>
				</g>
			</g>
		</g>
		<path id="XMLID_70_" class="st1" d="M794.9,337.3c0.3,0,0.6,0.1,0.9,0.2c0.3,0.2,0.5,0.4,0.7,0.7c0.2,0.3,0.2,0.6,0.2,0.9
			c0,0.3-0.1,0.6-0.2,0.9c-0.2,0.3-0.4,0.5-0.7,0.7c-0.3,0.2-0.6,0.2-0.9,0.2c-0.3,0-0.6-0.1-0.9-0.2c-0.3-0.2-0.5-0.4-0.7-0.7
			c-0.2-0.3-0.2-0.6-0.2-0.9c0-0.3,0.1-0.6,0.2-0.9c0.2-0.3,0.4-0.5,0.7-0.7C794.3,337.3,794.6,337.3,794.9,337.3z M794.9,337.6
			c-0.3,0-0.5,0.1-0.7,0.2c-0.2,0.1-0.4,0.3-0.5,0.5c-0.1,0.2-0.2,0.5-0.2,0.7c0,0.3,0.1,0.5,0.2,0.7c0.1,0.2,0.3,0.4,0.5,0.5
			c0.2,0.1,0.5,0.2,0.7,0.2c0.3,0,0.5-0.1,0.7-0.2c0.2-0.1,0.4-0.3,0.5-0.5c0.1-0.2,0.2-0.5,0.2-0.7c0-0.3-0.1-0.5-0.2-0.7
			c-0.1-0.2-0.3-0.4-0.5-0.5C795.4,337.7,795.2,337.6,794.9,337.6z M794.1,340.1v-1.9h0.4c0.4,0,0.6,0,0.6,0c0.1,0,0.2,0,0.3,0.1
			c0.1,0,0.1,0.1,0.2,0.2c0,0.1,0.1,0.2,0.1,0.3c0,0.1,0,0.3-0.1,0.4c-0.1,0.1-0.2,0.2-0.4,0.2c0.1,0,0.1,0,0.1,0.1
			c0,0,0.1,0.1,0.1,0.1c0,0,0.1,0.1,0.1,0.2l0.2,0.4h-0.5l-0.2-0.3c-0.1-0.2-0.2-0.3-0.3-0.4c-0.1-0.1-0.2-0.1-0.3-0.1h-0.1v0.8
			H794.1z M794.5,339h0.2c0.2,0,0.4,0,0.4,0c0.1,0,0.1,0,0.1-0.1c0,0,0-0.1,0-0.1c0-0.1,0-0.1,0-0.1c0,0-0.1-0.1-0.1-0.1
			c-0.1,0-0.2,0-0.4,0h-0.2V339z"/>
	</g>
	<text id="XMLID_1_" transform="matrix(1 0 0 1 215.6655 381.9127)" class="st11 st8 st12">For the Enterprise.</text>
</g>
</svg>
