<?xml version="1.0" standalone="no"?>
<!DOCTYPE svg PUBLIC "-//W3C//DTD SVG 20010904//EN"
 "http://www.w3.org/TR/2001/REC-SVG-20010904/DTD/svg10.dtd">
<svg version="1.0" xmlns="http://www.w3.org/2000/svg"
 width="152.000000pt" height="152.000000pt" viewBox="0 0 152.000000 152.000000"
 preserveAspectRatio="xMidYMid meet">
<metadata>
Created by potrace 1.14, written by Peter Selinger 2001-2017
</metadata>
<g transform="translate(0.000000,152.000000) scale(0.100000,-0.100000)"
fill="#000000" stroke="none">
<path d="M840 1505 c-14 -8 -32 -17 -40 -21 -26 -12 -50 -48 -50 -76 0 -26 -3
-28 -37 -28 -21 0 -63 -11 -94 -23 l-56 -23 -38 33 c-65 56 -177 77 -270 52
-58 -16 -135 -98 -158 -168 -21 -66 -22 -161 -2 -229 9 -29 37 -82 62 -119 26
-38 61 -95 79 -128 53 -102 131 -132 207 -81 55 38 64 14 21 -54 -19 -30 -34
-63 -34 -75 0 -40 -12 -66 -29 -62 -9 2 -15 9 -13 17 2 8 0 36 -3 62 -5 37
-11 48 -24 48 -24 0 -49 -30 -57 -67 -5 -26 0 -36 36 -72 23 -22 50 -41 60
-41 13 0 20 -11 25 -37 3 -21 13 -49 22 -62 15 -23 14 -87 -3 -148 -4 -16 2
-30 22 -50 20 -20 27 -37 26 -58 -3 -35 3 -44 42 -69 18 -11 49 -18 87 -19 49
-1 62 2 85 23 25 24 26 28 21 100 -3 42 -2 82 3 90 10 16 13 8 10 -28 -2 -26
25 -62 47 -62 7 0 13 -9 13 -20 0 -55 139 -61 191 -9 18 18 20 28 13 99 -5 66
-3 86 12 117 10 21 19 67 21 103 3 36 5 80 6 98 1 20 8 34 18 37 31 10 52 43
45 69 -7 30 -50 45 -77 27 -10 -6 -23 -11 -28 -11 -15 0 -22 32 -10 46 9 11
16 11 43 -3 48 -25 163 -28 206 -6 51 26 65 63 69 173 1 25 14 53 45 95 90
120 111 275 49 354 -42 53 -131 94 -201 94 -65 0 -110 -19 -163 -70 l-36 -34
-44 29 c-40 28 -115 57 -164 64 -25 4 -31 37 -11 63 14 20 15 19 25 -7 12 -32
25 -41 51 -33 26 8 25 33 -1 61 l-21 22 21 7 c12 3 21 11 21 16 0 13 -11 11
-40 -6z m-374 -123 c22 -11 48 -27 58 -35 19 -14 19 -15 -10 -40 -24 -21 -31
-23 -44 -12 -43 37 -125 60 -178 49 -44 -9 -115 -74 -141 -130 -27 -57 -30
-161 -6 -218 23 -53 89 -150 142 -207 54 -58 91 -75 132 -61 41 14 50 -3 12
-23 -68 -35 -144 -4 -176 72 -8 19 -40 71 -70 117 -64 95 -85 154 -85 240 0
121 48 211 133 252 45 22 62 25 123 20 44 -2 86 -12 110 -24z m853 -40 c42
-21 60 -37 78 -72 46 -84 17 -224 -67 -329 -25 -31 -34 -54 -42 -112 -16 -119
-16 -119 -53 -135 -41 -17 -129 -18 -174 -3 -36 13 -36 13 -13 37 16 17 18 17
51 -5 47 -32 86 -30 122 6 22 23 29 39 29 69 0 25 11 59 30 93 109 196 126
246 108 318 -14 56 -72 116 -128 131 -65 17 -108 4 -162 -52 -44 -46 -48 -47
-58 -28 -14 27 0 52 47 81 70 44 144 44 232 1z m-431 -4 c75 -28 161 -111 198
-190 25 -56 29 -74 29 -163 0 -89 -3 -106 -28 -157 -26 -53 -95 -128 -117
-128 -6 0 -10 18 -10 40 0 22 -4 40 -10 40 -24 0 -4 -101 29 -147 20 -28 26
-28 51 -3 17 17 24 18 41 10 31 -17 21 -53 -19 -65 -31 -9 -33 -11 -27 -46 5
-30 3 -39 -12 -47 -24 -14 -53 3 -53 32 0 21 -6 24 -52 30 -107 14 -188 70
-229 156 -13 27 -27 50 -31 50 -11 0 -10 -18 3 -42 6 -11 8 -22 5 -25 -11 -11
-152 40 -179 65 -67 63 -100 178 -85 298 10 87 48 161 110 220 106 99 245 125
386 72z m-468 -29 c66 -34 65 -32 27 -82 -56 -73 -72 -127 -72 -242 0 -94 2
-105 33 -168 19 -38 31 -71 28 -75 -14 -13 -77 -5 -103 14 -39 28 -128 147
-163 218 -39 78 -41 166 -6 241 53 114 151 150 256 94z m835 20 c44 -12 102
-61 117 -99 28 -72 2 -161 -91 -315 -26 -43 -41 -81 -41 -101 0 -93 -80 -133
-150 -76 l-23 19 20 34 c29 47 53 133 53 189 0 58 -25 154 -51 199 -12 20 -18
43 -15 55 10 36 50 76 91 91 49 17 42 17 90 4z m-681 -723 c20 -9 60 -16 98
-16 59 0 69 -3 132 -45 41 -27 81 -45 97 -45 16 0 29 -5 29 -10 0 -18 51 -60
73 -60 15 0 18 -5 13 -22 -3 -13 -6 -31 -6 -40 0 -9 -14 -25 -31 -35 -30 -18
-31 -19 -24 -75 5 -49 4 -57 -9 -52 -8 3 -18 14 -21 24 -6 20 -32 33 -46 24
-17 -10 -9 -22 12 -17 14 4 22 0 25 -14 3 -12 17 -26 31 -32 24 -11 25 -13 10
-29 -18 -17 -127 -29 -172 -18 -27 7 -34 33 -10 42 8 4 15 14 15 25 0 10 8 23
18 29 15 10 15 10 -3 8 -12 -2 -21 -12 -23 -26 -2 -12 -6 -22 -10 -22 -4 0 -5
33 -2 74 6 85 30 129 73 134 29 4 38 22 12 22 -53 0 -105 -65 -105 -129 0 -19
-5 -31 -14 -31 -7 0 -25 -11 -40 -25 -28 -26 -34 -72 -17 -133 11 -36 11 -35
-66 -33 -33 1 -45 -4 -57 -21 -15 -21 -17 -21 -33 -6 -15 16 -15 24 -1 105 18
97 14 114 -31 165 -40 46 -51 78 -51 146 0 67 14 124 42 170 l20 32 19 -24
c10 -13 34 -31 53 -40z"/>
</g>
</svg>
